<svg width="127" height="22" viewBox="0 0 127 22" fill="none" xmlns="http://www.w3.org/2000/svg">
<path d="M17.7585 9.99992V1.27262H23.5369V2.79392H19.6037V4.87352H23.1534V6.39482H19.6037V9.99992H17.7585ZM26.6232 1.27262V9.99992H24.7781V1.27262H26.6232ZM35.4411 1.27262V9.99992H33.8473L30.0504 4.50702H29.9865V9.99992H28.1413V1.27262H29.7607L33.5277 6.76132H33.6044V1.27262H35.4411ZM38.4698 9.99992H36.4925L39.5053 1.27262H41.8832L44.8917 9.99992H42.9144L40.7283 3.26692H40.6602L38.4698 9.99992ZM38.3462 6.56952H43.0167V8.00982H38.3462V6.56952ZM53.2418 1.27262V9.99992H51.6481L47.8512 4.50702H47.7873V9.99992H45.9421V1.27262H47.5614L51.3285 6.76132H51.4052V1.27262H53.2418ZM62.4666 4.32802H60.6001C60.5661 4.08652 60.4964 3.87212 60.3913 3.68462C60.2862 3.49422 60.1513 3.33232 59.9865 3.19882C59.8217 3.06522 59.6314 2.96302 59.4155 2.89192C59.2024 2.82092 58.9709 2.78542 58.7209 2.78542C58.2692 2.78542 57.8757 2.89762 57.5405 3.12212C57.2053 3.34362 56.9453 3.66752 56.7607 4.09372C56.576 4.51692 56.4837 5.03112 56.4837 5.63632C56.4837 6.25842 56.576 6.78112 56.7607 7.20442C56.9482 7.62772 57.2095 7.94732 57.5447 8.16332C57.88 8.37922 58.2678 8.48712 58.7081 8.48712C58.9553 8.48712 59.1839 8.45442 59.3942 8.38912C59.6072 8.32382 59.7962 8.22862 59.9609 8.10362C60.1257 7.97582 60.2621 7.82092 60.37 7.63912C60.4808 7.45732 60.5575 7.24992 60.6001 7.01692L62.4666 7.02552C62.4183 7.42602 62.2976 7.81242 62.1044 8.18462C61.9141 8.55392 61.657 8.88482 61.3331 9.17752C61.0121 9.46722 60.6286 9.69732 60.1825 9.86782C59.7393 10.0354 59.2379 10.1192 58.6783 10.1192C57.8999 10.1192 57.2038 9.94312 56.5902 9.59082C55.9794 9.23852 55.4964 8.72862 55.1413 8.06102C54.7891 7.39342 54.6129 6.58512 54.6129 5.63632C54.6129 4.68462 54.7919 3.87492 55.1499 3.20732C55.5078 2.53972 55.9936 2.03112 56.6072 1.68172C57.2209 1.32942 57.9112 1.15332 58.6783 1.15332C59.1839 1.15332 59.6527 1.22432 60.0845 1.36642C60.5192 1.50842 60.9041 1.71582 61.2393 1.98852C61.5746 2.25842 61.8473 2.58942 62.0575 2.98142C62.2706 3.37352 62.407 3.82232 62.4666 4.32802ZM63.7898 9.99992V1.27262H69.6705V2.79392H65.6349V4.87352H69.3679V6.39482H65.6349V8.47862H69.6875V9.99992H63.7898Z" fill="white"/>
<path d="M48.7875 14.1009L47.5614 21.4861H46L47.2261 14.1009H48.7875ZM56.2493 14.1009L55.0232 21.4861H53.6746L51.2405 16.838H51.1828L50.4075 21.4861H48.8461L50.0722 14.1009H51.4424L53.8657 18.7456H53.927L54.6951 14.1009H56.2493ZM61.1851 16.2466C61.1971 15.946 61.1093 15.714 60.9218 15.5506C60.7367 15.3871 60.4566 15.3054 60.0816 15.3054C59.8268 15.3054 59.6056 15.3414 59.4181 15.4136C59.2306 15.4833 59.0803 15.5806 58.9673 15.7057C58.8568 15.8282 58.7882 15.9701 58.7618 16.1311C58.7354 16.2634 58.7437 16.3788 58.787 16.4773C58.8327 16.5759 58.9036 16.6613 58.9998 16.7334C59.0983 16.8031 59.215 16.8644 59.3496 16.9173C59.4842 16.9678 59.6272 17.011 59.7787 17.0471L60.4134 17.2058C60.7235 17.2779 61.0023 17.374 61.2499 17.4943C61.5 17.6144 61.7091 17.7623 61.8774 17.9378C62.0481 18.1133 62.1683 18.32 62.238 18.5581C62.3078 18.796 62.3173 19.0689 62.2669 19.3766C62.19 19.8285 62.0108 20.2204 61.7295 20.5522C61.4483 20.8815 61.0793 21.1375 60.6225 21.3203C60.1657 21.5006 59.6368 21.5907 59.0358 21.5907C58.4397 21.5907 57.936 21.4993 57.5249 21.3167C57.1138 21.1339 56.8145 20.8635 56.627 20.5053C56.4419 20.1447 56.3866 19.6987 56.4611 19.1674H57.9721C57.9456 19.415 57.9817 19.6218 58.0802 19.7877C58.1812 19.9512 58.3315 20.0749 58.531 20.1591C58.7305 20.2408 58.965 20.2817 59.2342 20.2817C59.501 20.2817 59.7378 20.2433 59.9446 20.1663C60.1537 20.0894 60.3232 19.9824 60.453 19.8454C60.5828 19.7084 60.6622 19.5509 60.691 19.373C60.7199 19.2071 60.6946 19.0677 60.6153 18.9547C60.536 18.8417 60.4085 18.7456 60.2331 18.6662C60.06 18.5845 59.8448 18.5124 59.5876 18.4499L58.8159 18.2479C58.2197 18.0965 57.7689 17.8597 57.4636 17.5375C57.1583 17.2154 57.0489 16.7815 57.1354 16.2357C57.2124 15.7886 57.3987 15.3979 57.6944 15.0638C57.9925 14.7272 58.3675 14.4664 58.8195 14.2813C59.2739 14.0937 59.7703 14 60.3088 14C60.8569 14 61.3197 14.0949 61.6971 14.2849C62.0746 14.4724 62.3498 14.7344 62.5229 15.071C62.696 15.4075 62.7489 15.7994 62.6815 16.2466H61.1851ZM68.755 14.1009H70.3167L69.5231 18.897C69.4343 19.4355 69.2286 19.9067 68.9065 20.3106C68.5844 20.7144 68.1745 21.0294 67.6768 21.2554C67.1792 21.4789 66.6239 21.5907 66.0108 21.5907C65.3978 21.5907 64.8809 21.4789 64.4602 21.2554C64.0395 21.0294 63.7354 20.7144 63.5479 20.3106C63.3604 19.9067 63.3111 19.4355 63.4001 18.897L64.1934 14.1009H65.7548L64.9795 18.7636C64.9362 19.0449 64.9579 19.2949 65.0444 19.5137C65.1334 19.7324 65.28 19.9043 65.4844 20.0293C65.6887 20.1543 65.9411 20.2168 66.2416 20.2168C66.5445 20.2168 66.8186 20.1543 67.0638 20.0293C67.3114 19.9043 67.5145 19.7324 67.6732 19.5137C67.8343 19.2949 67.9365 19.0449 67.9797 18.7636L68.755 14.1009ZM70.3751 21.4861L71.6013 14.1009H74.5146C75.0726 14.1009 75.5316 14.1995 75.8921 14.3966C76.2551 14.5938 76.51 14.8739 76.6567 15.2369C76.806 15.5975 76.8405 16.023 76.7613 16.5134C76.6796 17.0038 76.5029 17.4245 76.2313 17.7755C75.9622 18.1265 75.6108 18.3969 75.1782 18.5869C74.7482 18.7744 74.2491 18.8682 73.6819 18.8682H71.7307L71.9475 17.6133H73.6423C73.9404 17.6133 74.1952 17.5724 74.4065 17.4906C74.6182 17.4089 74.7852 17.2863 74.9076 17.1228C75.033 16.9594 75.1148 16.7562 75.1528 16.5134C75.194 16.2658 75.1797 16.0591 75.1097 15.8932C75.0401 15.7249 74.9137 15.5975 74.7309 15.5109C74.5486 15.422 74.308 15.3775 74.0099 15.3775H72.9569L71.9364 21.4861H70.3751ZM74.9188 18.1253L76.1988 21.4861H74.475L73.2346 18.1253H74.9188ZM78.3713 21.4861H76.6984L80.4738 14.1009H82.486L83.8056 21.4861H82.1326L81.2344 15.7886H81.1771L78.3713 21.4861ZM78.7537 18.5833H82.7058L82.4966 19.8021H78.5445L78.7537 18.5833ZM92.0978 14.1009L90.8717 21.4861H89.5231L87.0891 16.838H87.0312L86.2559 21.4861H84.6946L85.9208 14.1009H87.2911L89.714 18.7456H89.7755L90.5437 14.1009H92.0978ZM99.4675 16.6865H97.9098C97.9149 16.4798 97.888 16.297 97.8306 16.1384C97.7727 15.9773 97.6864 15.8403 97.5707 15.7273C97.4579 15.6143 97.3198 15.5289 97.1564 15.4713C96.9929 15.4111 96.8091 15.3811 96.6044 15.3811C96.2104 15.3811 95.8484 15.4797 95.5189 15.6768C95.1899 15.8739 94.9122 16.16 94.6862 16.535C94.4603 16.9077 94.3039 17.3584 94.2171 17.8873C94.1333 18.3969 94.1379 18.8237 94.2318 19.1674C94.3252 19.5112 94.4913 19.7709 94.7294 19.9463C94.9696 20.1194 95.2691 20.206 95.6271 20.206C95.8484 20.206 96.0586 20.1783 96.2582 20.123C96.4577 20.0654 96.6395 19.9836 96.803 19.8778C96.9685 19.7696 97.1132 19.6387 97.2356 19.4848C97.3605 19.3309 97.4579 19.1566 97.5275 18.9619H99.0964C98.9979 19.3009 98.844 19.6278 98.6349 19.9427C98.4277 20.2577 98.1718 20.539 97.8667 20.7866C97.5615 21.0318 97.2137 21.2265 96.8243 21.3707C96.4349 21.515 96.0084 21.5871 95.5443 21.5871C94.8736 21.5871 94.2978 21.4332 93.817 21.1255C93.3387 20.8178 92.9935 20.3743 92.7822 19.7949C92.5705 19.2155 92.5309 18.5172 92.6629 17.6998C92.7954 16.9088 93.0539 16.2381 93.4382 15.6876C93.8256 15.1347 94.2953 14.7152 94.8482 14.4291C95.4037 14.143 95.9977 14 96.6298 14C97.0695 14 97.4676 14.0601 97.8235 14.1803C98.1789 14.3005 98.482 14.476 98.7318 14.7068C98.9847 14.9351 99.1746 15.2152 99.302 15.547C99.4295 15.8788 99.4843 16.2586 99.4675 16.6865ZM99.7976 21.4861L101.024 14.1009H106L105.784 15.3883H102.369L102.08 17.1481H105.239L105.023 18.4354H101.864L101.576 20.1988H105.005L104.789 21.4861H99.7976Z" fill="white"/>
<path fill-rule="evenodd" clip-rule="evenodd" d="M118.635 1.0088C118.774 1.02053 118.991 1.05964 119.119 1.09874C119.247 1.13785 119.456 1.24734 119.584 1.3451C119.712 1.43895 119.875 1.58364 119.948 1.66967C120.022 1.75179 120.138 1.94341 120.208 2.09592C120.278 2.24843 120.355 2.49088 120.379 2.64339C120.41 2.83891 120.41 2.99533 120.379 3.19086C120.355 3.34728 120.278 3.58973 120.2 3.75788C120.096 3.98078 119.999 4.11374 119.797 4.30535C119.611 4.48132 119.453 4.59473 119.267 4.67294C119.053 4.76679 118.929 4.79025 118.635 4.80589C118.433 4.81371 118.174 4.80198 118.065 4.77852C117.953 4.75506 117.759 4.68858 117.639 4.62992C117.515 4.56735 117.329 4.43831 117.22 4.34055C117.116 4.24278 116.972 4.07463 116.903 3.96905C116.833 3.86346 116.74 3.67185 116.694 3.5428C116.631 3.36683 116.612 3.21823 116.608 2.93667C116.608 2.65121 116.628 2.50652 116.697 2.311C116.744 2.17022 116.841 1.97078 116.91 1.86129C116.98 1.7557 117.116 1.59538 117.209 1.50543C117.298 1.4194 117.453 1.30209 117.55 1.24734C117.647 1.18868 117.821 1.11829 117.937 1.0831C118.054 1.05181 118.205 1.01662 118.267 1.0088C118.333 0.997067 118.495 0.997067 118.635 1.0088ZM114.082 2.85846C114.12 2.85846 114.148 2.91321 114.163 3.00706C114.175 3.08528 114.221 3.27298 114.264 3.42549C114.306 3.578 114.396 3.80481 114.458 3.93385C114.523 4.0629 114.659 4.28971 114.756 4.44222C114.853 4.59473 115.066 4.85282 115.225 5.02488C115.384 5.19304 115.655 5.42376 115.825 5.53715C115.996 5.65448 116.302 5.82654 116.504 5.92431C116.705 6.02208 117.038 6.14327 117.24 6.19804C117.441 6.24885 117.79 6.31533 118.015 6.33881C118.243 6.36619 118.565 6.37791 118.751 6.36228C118.933 6.35052 119.185 6.31924 119.313 6.29971C119.441 6.28014 119.677 6.22542 119.836 6.17847C119.995 6.13546 120.286 6.02598 120.475 5.93212C120.669 5.84216 120.956 5.68187 121.115 5.57624C121.274 5.47067 121.557 5.23214 121.739 5.04835C121.921 4.86455 122.146 4.60255 122.235 4.46177C122.324 4.32099 122.459 4.08636 122.529 3.93385C122.603 3.78134 122.696 3.52716 122.738 3.36683C122.777 3.2065 122.824 3.02662 122.835 2.96796C122.847 2.90539 122.886 2.85846 122.917 2.85846C122.948 2.85846 122.986 2.90539 123.002 2.96796C123.017 3.02662 123.029 3.31208 123.029 3.60146C123.029 4.01206 123.01 4.19977 122.944 4.44222C122.897 4.61428 122.773 4.93103 122.665 5.14611C122.56 5.36119 122.386 5.65058 122.281 5.79135C122.177 5.93212 121.975 6.15894 121.828 6.2958C121.681 6.43657 121.413 6.64773 121.231 6.76507C121.049 6.88236 120.782 7.03489 120.63 7.10528C120.483 7.17566 120.22 7.27343 120.049 7.32815C119.879 7.38291 119.549 7.4572 119.313 7.4924C118.984 7.54716 118.743 7.55497 118.267 7.53935C117.829 7.52759 117.546 7.4963 117.31 7.43768C117.12 7.39072 116.837 7.30081 116.678 7.23824C116.519 7.17566 116.271 7.06227 116.128 6.98794C115.98 6.91365 115.736 6.76507 115.585 6.65554C115.43 6.54606 115.178 6.32709 115.027 6.17456C114.876 6.01817 114.678 5.77568 114.585 5.63491C114.496 5.49414 114.365 5.27124 114.299 5.13829C114.233 5.00142 114.132 4.73942 114.074 4.55171C113.985 4.2506 113.973 4.1372 113.969 3.64056C113.965 3.32772 113.977 3.02662 113.996 2.96796C114.012 2.90539 114.051 2.85846 114.082 2.85846ZM110.672 4.6964L111.237 5.2908C111.547 5.61929 111.974 6.0416 112.187 6.22542C112.396 6.4131 112.787 6.72597 113.055 6.92146C113.396 7.17176 113.741 7.38291 114.217 7.62145C114.613 7.82089 115.105 8.03595 115.399 8.13372C115.678 8.22758 116.062 8.33706 116.252 8.38011C116.445 8.41921 116.775 8.48178 116.988 8.50912C117.22 8.54431 117.693 8.56779 118.17 8.56779C118.608 8.56779 119.123 8.54826 119.313 8.52869C119.507 8.50912 119.731 8.48178 119.817 8.47002C119.945 8.45049 119.91 8.47788 119.604 8.61865C119.402 8.71246 118.956 8.90019 118.615 9.03705C118.274 9.17001 117.813 9.36164 117.589 9.4555C117.364 9.55322 117.042 9.69794 116.872 9.77614C116.701 9.85824 116.395 10.0225 116.194 10.1437C115.992 10.261 115.705 10.4487 115.554 10.5543C115.407 10.6599 115.171 10.8359 115.031 10.9493C114.892 11.0627 114.566 11.3677 114.303 11.6297C114.043 11.8917 113.826 12.1186 113.83 12.1381C113.83 12.1537 113.807 12.1655 113.783 12.1655C113.756 12.1694 113.814 12.0716 113.919 11.9504C114.02 11.8331 114.101 11.7314 114.101 11.7275C114.101 11.7197 114.074 11.7158 114.043 11.7158C114.012 11.7158 113.985 11.7392 113.985 11.7666C113.985 11.7901 113.954 11.8253 113.919 11.837C113.88 11.8526 113.807 11.8643 113.752 11.8643C113.698 11.8643 113.644 11.8839 113.628 11.9074C113.613 11.9308 113.535 11.9543 113.454 11.9582C113.373 11.9582 113.237 11.9425 113.152 11.923C113.066 11.8995 112.977 11.8604 112.954 11.837C112.931 11.8135 112.904 11.7666 112.888 11.7353C112.875 11.6962 112.868 11.7066 112.865 11.7666C112.861 11.8135 112.846 11.8448 112.822 11.8331C112.803 11.8213 112.784 11.7783 112.784 11.7353C112.784 11.6923 112.76 11.661 112.737 11.6688C112.706 11.6727 112.691 11.6453 112.694 11.5984C112.706 11.528 112.698 11.528 112.648 11.5789C112.613 11.6101 112.598 11.6453 112.609 11.6571C112.621 11.6688 112.59 11.704 112.543 11.7353C112.497 11.7666 112.439 11.8487 112.412 11.9113C112.381 11.9816 112.361 12.0012 112.357 11.9621C112.357 11.923 112.377 11.8526 112.4 11.8057C112.427 11.7549 112.555 11.5828 112.687 11.4225C112.818 11.2621 113.074 10.9884 113.256 10.8163C113.435 10.6443 113.659 10.4409 113.752 10.3627C113.849 10.2845 114.163 10.0616 114.45 9.87C114.737 9.67447 115.008 9.4985 115.05 9.47503C115.112 9.43984 115.116 9.42812 115.07 9.41245C115.039 9.40074 114.768 9.30297 114.469 9.19349C114.171 9.08005 113.725 8.88457 113.481 8.75551C113.237 8.62646 112.818 8.37616 112.551 8.2002C112.284 8.02423 111.947 7.77398 111.795 7.64493C111.648 7.51978 111.489 7.38291 111.447 7.34381C111.404 7.30862 111.358 7.27734 111.342 7.27734C111.323 7.27734 111.299 7.59016 111.288 7.97342C111.272 8.35273 111.272 8.87671 111.288 9.13482C111.303 9.39293 111.338 9.81524 111.369 10.0733C111.4 10.3314 111.451 10.6834 111.485 10.8554C111.516 11.0275 111.598 11.3638 111.664 11.5984C111.726 11.8331 111.861 12.2319 111.958 12.4783C112.055 12.7246 112.222 13.104 112.326 13.319C112.435 13.5341 112.555 13.7531 112.594 13.8079C112.632 13.8626 112.656 13.9408 112.652 13.9838C112.644 14.0268 112.601 14.1676 112.559 14.2967C112.516 14.4257 112.45 14.6799 112.419 14.8637C112.384 15.0475 112.35 15.2782 112.319 15.5676L112.152 15.3643C112.063 15.2508 111.861 14.9615 111.71 14.7268C111.559 14.4922 111.33 14.0933 111.203 13.847C111.071 13.6006 110.885 13.1939 110.784 12.9476C110.683 12.7012 110.536 12.2671 110.455 11.9895C110.373 11.7118 110.269 11.3051 110.226 11.0901C110.183 10.875 110.121 10.4878 110.087 10.2297C110.056 9.97167 110.021 9.46331 110.005 9.09572C109.994 8.71246 110.001 8.19239 110.028 7.86389C110.052 7.55106 110.11 7.05832 110.152 6.76897C110.199 6.47958 110.276 6.07289 110.327 5.86954C110.377 5.6662 110.478 5.31817 110.548 5.09527L110.672 4.6964ZM126.319 4.70422L126.462 5.1422C126.54 5.38074 126.652 5.79135 126.706 6.04941C126.765 6.30752 126.834 6.68292 126.865 6.89017C126.9 7.09352 126.947 7.55106 126.974 7.90694C127.009 8.40354 127.009 8.72032 126.974 9.31469C126.947 9.73314 126.892 10.3041 126.85 10.5856C126.811 10.8632 126.73 11.2856 126.676 11.5241C126.621 11.7588 126.505 12.1655 126.416 12.4236C126.331 12.6816 126.207 13.0062 126.145 13.147C126.083 13.2839 125.959 13.542 125.869 13.714C125.784 13.8861 125.625 14.1755 125.521 14.3592C125.412 14.5391 125.257 14.7972 125.168 14.9263C125.083 15.0553 124.874 15.3369 124.707 15.5519C124.54 15.767 124.215 16.1307 123.986 16.3653C123.761 16.5999 123.424 16.9167 123.246 17.0731C123.064 17.2256 122.8 17.4368 122.665 17.5385C122.525 17.644 122.363 17.7575 122.305 17.7927C122.246 17.8279 122.196 17.8709 122.196 17.8865C122.2 17.9022 122.18 17.9178 122.161 17.9178C122.138 17.9178 122.026 17.9764 121.909 18.0547C121.789 18.129 121.681 18.1876 121.665 18.1876C121.65 18.1876 121.611 18.215 121.58 18.2502C121.545 18.2893 121.44 18.3558 121.347 18.4066C121.25 18.4535 120.972 18.5943 120.727 18.7194C120.479 18.8407 120.185 18.9854 120.069 19.0401C119.948 19.0909 119.565 19.2396 119.216 19.3686C118.863 19.5016 118.542 19.6072 118.499 19.6072C118.457 19.6032 118.29 19.5641 118.131 19.5172C117.968 19.4703 117.821 19.4272 117.802 19.4194C117.778 19.4155 117.751 19.4155 117.74 19.4155C117.724 19.4194 117.689 19.3999 117.662 19.3764C117.631 19.353 117.511 19.3021 117.395 19.2669C117.275 19.2278 117.162 19.1809 117.143 19.1653C117.12 19.1496 117.093 19.134 117.085 19.134C117.073 19.134 117.031 19.1222 116.988 19.1027C116.945 19.087 116.709 18.9854 116.465 18.8759C116.217 18.7664 115.907 18.61 115.775 18.5318C115.643 18.4496 115.515 18.387 115.496 18.387C115.473 18.387 115.453 18.3636 115.453 18.3362C115.453 18.3088 115.481 18.2072 115.515 18.1133C115.546 18.0155 115.647 17.777 115.736 17.5854C115.825 17.3899 115.899 17.2256 115.899 17.2217C115.899 17.2178 116.101 17.3077 116.349 17.4212C116.593 17.5346 116.852 17.6558 116.93 17.6871C117.003 17.7223 117.17 17.7888 117.298 17.8357C117.426 17.8826 117.616 17.9608 117.724 18.0038C117.829 18.0468 118.046 18.1212 118.499 18.2502L118.751 18.1603C118.887 18.1094 119.08 18.0429 119.177 18.0077C119.27 17.9725 119.48 17.8826 119.642 17.8083C119.801 17.734 120.061 17.6089 120.224 17.5346C120.382 17.4564 120.7 17.2804 120.929 17.1435C121.157 17.0106 121.355 16.9011 121.367 16.9011C121.374 16.9011 121.409 16.8776 121.444 16.8502C121.475 16.8229 121.526 16.7838 121.549 16.7642C121.576 16.7408 121.677 16.6703 121.774 16.6078C121.867 16.5413 122.076 16.3849 122.239 16.2558C122.398 16.1268 122.707 15.8452 122.928 15.6302C123.149 15.4151 123.471 15.0631 123.645 14.848C123.816 14.633 124.075 14.2693 124.223 14.0464C124.37 13.8196 124.599 13.4051 124.734 13.1274C124.874 12.8459 125.06 12.3884 125.157 12.1107C125.25 11.8292 125.373 11.4147 125.428 11.1917C125.482 10.9649 125.556 10.613 125.587 10.4096C125.618 10.2024 125.656 9.90519 125.672 9.74485C125.691 9.5806 125.699 9.02924 125.699 8.51307C125.695 7.99685 125.676 7.50025 125.629 7.24995L125.029 7.80132C124.695 8.10243 124.219 8.51697 123.963 8.72422C123.707 8.93147 123.289 9.25997 123.033 9.4555C122.777 9.64708 122.428 9.90519 122.258 10.0225C122.087 10.1437 121.727 10.3823 121.464 10.5543C121.196 10.7225 120.716 11.0158 120.398 11.1956C120.076 11.3795 119.631 11.6336 119.41 11.7588C119.185 11.8839 118.739 12.142 118.422 12.3375C118.1 12.5291 117.666 12.8107 117.453 12.9632C117.24 13.1118 116.941 13.3386 116.794 13.4598C116.643 13.5811 116.38 13.8196 116.209 13.9917C116.039 14.1598 115.794 14.4218 115.667 14.5743C115.539 14.7229 115.329 15.0045 115.202 15.2C115.078 15.3955 114.95 15.5871 114.923 15.6302C114.895 15.6732 114.83 15.7944 114.771 15.9039C114.713 16.0095 114.601 16.2402 114.523 16.4123C114.446 16.5843 114.33 16.9011 114.26 17.1162C114.19 17.3312 114.12 17.558 114.101 17.6245C114.082 17.6871 114.047 17.8513 114.024 17.9843C114 18.1172 113.965 18.3284 113.946 18.4535C113.927 18.5787 113.903 18.7351 113.896 18.8055C113.892 18.8759 113.872 18.9345 113.857 18.9345C113.841 18.9345 113.791 18.8485 113.748 18.7468C113.702 18.6452 113.624 18.4301 113.57 18.2697C113.516 18.1055 113.466 17.9491 113.458 17.9178C113.454 17.8826 113.431 17.777 113.407 17.6832C113.384 17.5854 113.357 17.4525 113.342 17.3899C113.326 17.3234 113.311 17.0066 113.303 16.686C113.295 16.2363 113.311 15.9978 113.369 15.6693C113.407 15.4307 113.504 15.0514 113.582 14.8285C113.659 14.6017 113.818 14.2224 113.938 13.9878C114.058 13.7492 114.233 13.4403 114.326 13.3034C114.423 13.1626 114.624 12.8967 114.779 12.7168C114.93 12.5331 115.182 12.2632 115.333 12.1186C115.484 11.9738 115.744 11.747 115.911 11.6141C116.077 11.4811 116.43 11.2308 116.697 11.051C116.961 10.875 117.344 10.6365 117.55 10.523C117.751 10.4096 118.561 9.98729 119.352 9.58842C120.138 9.18568 120.995 8.73984 121.25 8.59907C121.506 8.4583 121.925 8.21586 122.18 8.06333C122.436 7.90694 122.696 7.74269 122.762 7.69574C122.824 7.64883 122.921 7.58626 122.975 7.55888C123.025 7.53149 123.289 7.35163 123.556 7.15219C123.82 6.95665 124.238 6.63601 124.486 6.43657C124.73 6.24104 125.242 5.76787 125.625 5.39247L126.319 4.70422ZM125.06 9.73704C125.067 9.76052 125.052 9.97167 125.029 10.2024C125.001 10.4331 124.932 10.8163 124.874 11.051C124.812 11.2895 124.699 11.6414 124.622 11.8331C124.544 12.0286 124.393 12.3453 124.285 12.537C124.172 12.7325 124.009 12.9906 123.917 13.1157C123.808 13.2604 123.731 13.3269 123.699 13.3112C123.668 13.2904 123.662 13.2969 123.68 13.3308C123.699 13.3581 123.634 13.4559 123.51 13.585C123.343 13.757 123.327 13.7648 123.413 13.6436C123.471 13.5615 123.506 13.4833 123.49 13.4677C123.479 13.4481 123.459 13.4598 123.452 13.4872C123.444 13.5107 123.413 13.5341 123.382 13.5341C123.347 13.5341 123.324 13.5537 123.324 13.5733C123.324 13.5967 123.277 13.6123 123.227 13.6123C123.162 13.6123 123.123 13.6384 123.11 13.6905C123.095 13.7414 123.045 13.7766 122.963 13.7922C122.893 13.8079 122.812 13.8039 122.781 13.7844C122.738 13.7609 122.731 13.7648 122.75 13.8C122.769 13.8274 122.758 13.847 122.723 13.847C122.688 13.847 122.653 13.8744 122.645 13.9057C122.63 13.9487 122.576 13.9643 122.44 13.9565C122.339 13.9526 122.18 13.9604 122.091 13.976C121.994 13.9917 121.921 13.9878 121.909 13.9643C121.898 13.9408 121.828 13.9369 121.743 13.9487C121.661 13.9643 121.56 13.9565 121.51 13.9291C121.464 13.9057 121.359 13.8822 121.278 13.8822C121.196 13.8783 121.092 13.8587 121.045 13.8431C120.991 13.8196 120.968 13.7844 120.979 13.7492C120.991 13.7062 120.975 13.6944 120.902 13.7101C120.813 13.7296 120.805 13.7179 120.813 13.6123C120.82 13.5302 120.809 13.5029 120.774 13.5146C120.747 13.5263 120.727 13.5263 120.727 13.5146C120.727 13.5029 120.789 13.4598 120.871 13.4168C120.968 13.3621 121.002 13.323 120.979 13.2956C120.952 13.2682 120.871 13.2839 120.735 13.3464C120.623 13.3972 120.522 13.4598 120.51 13.4872C120.503 13.5107 120.472 13.5302 120.444 13.5263C120.417 13.5263 120.344 13.542 120.282 13.5693C120.216 13.5967 120.15 13.628 120.134 13.6358C120.119 13.6436 120.107 13.6436 120.107 13.6319C120.107 13.6202 120.282 13.5146 120.495 13.3972C120.72 13.2721 120.902 13.1939 120.929 13.2135C120.96 13.2317 120.966 13.2252 120.948 13.1939C120.929 13.1587 121.002 13.0961 121.181 13.0023C121.324 12.9241 121.634 12.7325 121.87 12.58C122.103 12.4236 122.494 12.1498 122.742 11.966C122.986 11.7822 123.343 11.5007 123.537 11.3364C123.727 11.1722 124.048 10.8672 124.254 10.656C124.455 10.4409 124.719 10.1398 124.835 9.98339C124.951 9.82305 125.052 9.71356 125.06 9.73704Z" fill="white"/>
<path d="M7.33918 4.25923C7.44519 4.20499 7.59518 4.14556 7.67277 4.1249C7.75036 4.10424 7.90294 4.08616 8.00895 4.08616C8.11501 4.08357 8.27275 4.10165 8.35809 4.12232C8.44344 4.14556 8.58307 4.19723 8.66841 4.23856C8.75376 4.28245 8.88048 4.36511 8.95031 4.42711C9.02271 4.48651 9.13651 4.62341 9.20375 4.7293C9.27355 4.83519 9.35373 4.99791 9.38475 5.09089C9.41837 5.20197 9.44164 5.35179 9.44683 5.52998C9.45459 5.74695 9.44684 5.83993 9.40286 5.9949C9.3744 6.10083 9.31236 6.25835 9.26839 6.34362C9.22182 6.43143 9.10805 6.57865 9.0046 6.67938C8.88563 6.80078 8.76667 6.8886 8.6555 6.94284C8.5624 6.98673 8.41757 7.04357 8.33223 7.06423C8.24688 7.08746 8.0969 7.10556 7.99604 7.10556C7.89519 7.10556 7.7452 7.08746 7.65986 7.06679C7.57451 7.04357 7.45295 6.99964 7.38831 6.97122C7.32367 6.94024 7.22537 6.88344 7.16849 6.84467C7.11161 6.80853 6.9978 6.7026 6.91765 6.61223C6.83491 6.52181 6.73921 6.3875 6.70299 6.31775C6.66937 6.24544 6.61509 6.09563 6.58662 5.98199C6.55816 5.86575 6.5349 5.69011 6.5349 5.58167C6.5349 5.47318 6.5556 5.3027 6.58402 5.19422C6.61249 5.08833 6.67197 4.93076 6.7185 4.84554C6.76507 4.76028 6.87884 4.61566 6.97454 4.52268C7.08574 4.4142 7.21502 4.32118 7.33918 4.25923Z" fill="white"/>
<path d="M8.12539 0.108481C8.06851 0.0490746 8.00387 0 7.98316 0C7.9625 0 7.86164 0.0981496 7.76335 0.214379C7.66249 0.330609 7.5151 0.524327 7.43492 0.645722C7.35477 0.767118 7.2358 0.976332 7.17116 1.11064C7.10908 1.24495 7.02889 1.449 6.99788 1.56264C6.94875 1.72537 6.93839 1.83385 6.93839 2.07922C6.93839 2.35559 6.94615 2.40983 7.01338 2.58288C7.0522 2.68878 7.15561 2.89283 7.24096 3.03489C7.3263 3.17695 7.45822 3.37583 7.53321 3.47398C7.60821 3.57213 7.74008 3.72452 7.82803 3.80975L7.98576 3.96473C8.30128 3.64187 8.48489 3.40166 8.61676 3.20278C8.74348 3.01164 8.88831 2.7611 8.94003 2.64746C9.03054 2.44082 9.03054 2.43824 9.03054 2.06631C9.03054 1.70987 9.02538 1.67887 8.94519 1.45158C8.90122 1.32243 8.82107 1.12872 8.76934 1.02799C8.71762 0.924672 8.61676 0.75162 8.54437 0.645722C8.47453 0.539824 8.37368 0.400347 8.32195 0.335775C8.27282 0.271203 8.18232 0.17047 8.12539 0.108481Z" fill="white"/>
<path d="M10.0624 1.6143C10.0236 1.54456 9.97961 1.46708 9.96154 1.44383C9.93048 1.40509 9.92272 1.40767 9.84773 1.45675C9.80376 1.48516 9.72617 1.57814 9.67704 1.66079C9.62791 1.74086 9.56327 1.88034 9.53221 1.97074C9.48828 2.0973 9.48053 2.16446 9.49344 2.29877C9.50379 2.40983 9.53481 2.51056 9.58138 2.59322C9.62016 2.66295 9.67964 2.74044 9.71586 2.76885C9.75203 2.79468 9.81152 2.81792 9.85289 2.81534C9.89171 2.81534 9.95374 2.78951 9.99516 2.75594C10.0339 2.72236 10.096 2.63196 10.1374 2.55447C10.1969 2.43824 10.2072 2.38142 10.2072 2.22128C10.2072 2.11538 10.1891 1.96299 10.1684 1.88551C10.1477 1.80802 10.0986 1.68663 10.0624 1.6143Z" fill="white"/>
<path d="M6.20914 1.52907C6.15481 1.46708 6.08758 1.418 6.06431 1.42059C6.03845 1.42059 5.98932 1.47483 5.94795 1.54456C5.90913 1.61172 5.84965 1.74345 5.81863 1.8416C5.77985 1.95266 5.75915 2.07664 5.75915 2.1877C5.75915 2.28585 5.77726 2.415 5.80052 2.47957C5.82123 2.54414 5.8652 2.62421 5.89362 2.66037C5.92208 2.69653 5.97637 2.74561 6.01258 2.76885C6.05136 2.79468 6.11084 2.81534 6.14706 2.81534C6.18843 2.81792 6.24276 2.78435 6.3048 2.71978C6.35397 2.66553 6.41601 2.56997 6.44187 2.5054C6.47549 2.41758 6.48584 2.33751 6.47809 2.18254C6.47033 2.01982 6.45222 1.94233 6.39014 1.80802C6.34877 1.71503 6.26602 1.59106 6.20914 1.52907Z" fill="white"/>
<path d="M3.90235 1.77186C3.82994 1.74861 3.75753 1.73053 3.7446 1.73053C3.73167 1.73053 3.71098 1.74603 3.69805 1.76411C3.6877 1.78219 3.65409 1.92942 3.62823 2.09213C3.58943 2.32718 3.58426 2.47182 3.59461 2.78952C3.60236 3.01681 3.62564 3.26218 3.64891 3.35775C3.67219 3.45073 3.72132 3.60054 3.76011 3.69352C3.7989 3.78651 3.87649 3.93115 3.93338 4.01639C3.99027 4.10162 4.10147 4.22817 4.17648 4.30048C4.25407 4.37024 4.43507 4.52265 4.5825 4.63629C4.72729 4.74993 4.90833 4.89455 4.98592 4.95915C5.0773 5.03661 5.11608 5.05816 5.10229 5.0237C5.08938 4.99528 5.06351 4.85582 5.04281 4.71376C5.00919 4.50454 5.00659 4.40897 5.02989 4.21011C5.0454 4.07579 5.08938 3.85883 5.12555 3.73227C5.16437 3.6057 5.24192 3.38874 5.3014 3.25443C5.36088 3.12012 5.40745 2.99356 5.40225 2.97548C5.3997 2.95999 5.36088 2.89025 5.31435 2.82309C5.27038 2.75335 5.1204 2.58805 4.98592 2.45374C4.82558 2.2936 4.66265 2.16187 4.52302 2.07922C4.40405 2.0069 4.24632 1.91908 4.17388 1.88034C4.09889 1.8416 3.97735 1.79252 3.90235 1.77186Z" fill="white"/>
<path d="M12.3537 2.00432C12.3329 1.89325 12.3019 1.79511 12.2864 1.78477C12.2683 1.77703 12.1933 1.77444 12.1183 1.78477C12.02 1.79511 11.9089 1.83643 11.7459 1.92167C11.6166 1.9914 11.4485 2.08955 11.3709 2.13863C11.2934 2.19029 11.1227 2.33493 10.996 2.46407C10.8666 2.59322 10.7193 2.76627 10.6649 2.84634L10.5692 2.99614C10.7089 3.32675 10.7761 3.50497 10.8098 3.60312C10.846 3.70127 10.8925 3.88208 10.9184 4.00347C10.952 4.17394 10.9597 4.29793 10.9494 4.54587C10.9416 4.72411 10.921 4.91522 10.9029 4.97466L10.8666 5.08054C11.1485 4.83515 11.3037 4.706 11.3968 4.63629C11.4899 4.56654 11.627 4.45805 11.7045 4.3935C11.7795 4.32635 11.8985 4.20495 11.9683 4.1197C12.0356 4.03447 12.1312 3.87691 12.1804 3.77101C12.2295 3.66511 12.289 3.49464 12.3148 3.39649C12.3381 3.29834 12.3666 3.16403 12.3743 3.09946C12.3847 3.03489 12.3924 2.8076 12.3924 2.5958C12.3924 2.36592 12.3743 2.12572 12.3537 2.00432Z" fill="white"/>
<path d="M5.9557 3.40941C5.8652 3.2751 5.7695 3.14337 5.74104 3.11754C5.69191 3.07105 5.68931 3.07363 5.55744 3.33709C5.48244 3.48431 5.3945 3.70902 5.35832 3.83558C5.32211 3.96473 5.28589 4.17652 5.27554 4.31344C5.26522 4.49679 5.27298 4.61562 5.304 4.77835C5.32986 4.89975 5.38934 5.0857 5.44107 5.19158C5.4902 5.29751 5.5807 5.45504 5.64278 5.5403C5.70486 5.62552 5.83154 5.77534 5.92208 5.87607C6.01518 5.9768 6.09793 6.0517 6.10569 6.04395C6.11344 6.03619 6.12639 5.99486 6.13415 5.95353C6.13858 5.93581 6.14635 5.89855 6.15623 5.85118C6.16937 5.78819 6.18624 5.70733 6.20394 5.63068C6.2324 5.49637 6.26087 5.36722 6.26602 5.34655C6.26874 5.33567 6.27719 5.29472 6.28875 5.23877C6.29914 5.18847 6.31203 5.12604 6.32551 5.06243C6.35652 4.92557 6.37979 4.71891 6.37979 4.59752C6.37979 4.47612 6.36172 4.30308 6.33842 4.21011C6.31515 4.11712 6.25567 3.9544 6.20654 3.8485C6.15741 3.7426 6.0436 3.54372 5.9557 3.40941Z" fill="white"/>
<path d="M10.4115 3.28543C10.3624 3.18211 10.3158 3.09946 10.3055 3.09946C10.2951 3.09946 10.246 3.13821 10.1994 3.18211C10.1529 3.22861 10.065 3.33709 10.0081 3.42232C9.95119 3.50756 9.85549 3.67028 9.7986 3.78392C9.73912 3.89757 9.67189 4.06546 9.64602 4.15844C9.615 4.2721 9.60205 4.41932 9.60205 4.61043C9.60205 4.84291 9.61756 4.95399 9.6848 5.21745C9.72877 5.39564 9.78565 5.65394 9.81152 5.7934C9.83738 5.93031 9.86584 6.04395 9.87619 6.04395C9.88911 6.04395 9.97705 5.96644 10.0727 5.87091C10.1684 5.77274 10.321 5.58419 10.4089 5.44988C10.4994 5.31558 10.5951 5.12963 10.6262 5.03661C10.6649 4.91781 10.683 4.77315 10.6934 4.54587C10.7011 4.30308 10.6934 4.16878 10.6598 4.00347C10.6365 3.88208 10.5899 3.71419 10.5563 3.62895C10.5253 3.54372 10.4581 3.38874 10.4115 3.28543Z" fill="white"/>
<path d="M3.39289 4.29533C3.35151 4.29277 3.21704 4.28501 3.09549 4.27986C2.97395 4.2721 2.77741 4.27466 2.66103 4.28502C2.47742 4.29793 2.43604 4.31084 2.38949 4.36248C2.35157 4.40381 2.3395 4.43827 2.35329 4.46581C2.36622 4.48903 2.43346 4.60527 2.50587 4.72667C2.57828 4.84806 2.70758 5.03405 2.79292 5.13994C2.88085 5.24582 3.02567 5.4008 3.11877 5.48346C3.21187 5.56612 3.37479 5.67201 3.47565 5.72109C3.62564 5.7934 3.71098 5.81407 3.87649 5.82698C4.01958 5.83905 4.21182 5.82958 4.45318 5.79856C4.68336 5.77018 4.91349 5.75983 5.08678 5.76498C5.23676 5.77274 5.38159 5.78825 5.41001 5.80116C5.45658 5.82182 5.45658 5.81407 5.3971 5.73401C5.36348 5.68492 5.18244 5.49121 4.99628 5.30522C4.81263 5.12187 4.57215 4.9049 4.46609 4.82484C4.36008 4.74478 4.2075 4.6466 4.12992 4.60787C4.05234 4.56914 3.96441 4.51745 3.93597 4.49423C3.90493 4.47356 3.79632 4.42708 3.69029 4.3909C3.58426 4.35473 3.49116 4.32115 3.4834 4.31344C3.47565 4.30568 3.43427 4.29793 3.39289 4.29533Z" fill="white"/>
<path d="M13.5614 4.30568C13.5303 4.29533 13.3648 4.27986 13.1941 4.27466C13.0234 4.26951 12.8088 4.27466 12.7157 4.28757C12.6226 4.30308 12.4623 4.33666 12.3588 4.36508C12.258 4.3935 12.1106 4.44774 12.0356 4.48388C11.9631 4.52265 11.8261 4.60527 11.733 4.66987C11.6399 4.73702 11.4847 4.85582 11.3839 4.93588C11.283 5.01594 11.0891 5.20194 10.9468 5.34915C10.8072 5.49637 10.6598 5.66425 10.6184 5.72109C10.5667 5.79085 10.5563 5.81667 10.5899 5.80116C10.6132 5.78825 10.7451 5.77274 10.8796 5.76758C11.0347 5.75723 11.2494 5.77018 11.4615 5.796C11.6451 5.82182 11.8907 5.83733 12.0045 5.83733C12.139 5.83473 12.2709 5.81147 12.3795 5.77789C12.4726 5.74692 12.6252 5.66685 12.7157 5.60226C12.8088 5.5377 12.9639 5.39304 13.0648 5.282C13.1657 5.17352 13.2924 5.01079 13.3519 4.92297C13.4088 4.83775 13.4993 4.69053 13.551 4.59752C13.6053 4.49939 13.6389 4.40897 13.6312 4.37799C13.626 4.34957 13.595 4.31599 13.5614 4.30568Z" fill="white"/>
<path d="M2.70758 7.24239C2.67914 7.21142 2.67396 7.17524 2.68689 7.10033C2.6966 7.05961 2.71068 7.0058 2.72366 6.96619C2.70998 7.0063 2.69473 7.05923 2.68689 7.10033C2.67396 7.17524 2.67653 7.21403 2.70756 7.24501C2.72825 7.26823 2.76187 7.28634 2.78515 7.28634C2.79753 7.28479 2.81547 7.27861 2.83343 7.27058C2.81529 7.2785 2.79717 7.28372 2.78516 7.28372C2.76447 7.28632 2.72827 7.26566 2.70758 7.24239Z" fill="white"/>
<path d="M2.84582 7.26474C2.85359 7.2609 2.8611 7.25683 2.8679 7.25277C2.87048 7.25096 2.87306 7.2487 2.87562 7.24601C2.87392 7.24757 2.87221 7.24896 2.87051 7.25015C2.8631 7.25532 2.85463 7.26029 2.84582 7.26474Z" fill="white"/>
<path d="M2.76803 6.88441C2.75584 6.89246 2.74592 6.90772 2.73601 6.93247C2.74676 6.90861 2.75643 6.89301 2.76803 6.88441Z" fill="white"/>
<path d="M2.62224 7.93719C2.60673 7.92688 2.555 7.91137 2.51363 7.90361C2.46966 7.89586 2.43346 7.87004 2.42828 7.84421C2.42101 7.81031 2.43873 7.80141 2.5474 7.80042C2.43867 7.80132 2.41836 7.81025 2.42568 7.84683C2.43085 7.87006 2.46964 7.89588 2.51361 7.90623C2.55499 7.91399 2.60412 7.92945 2.62222 7.93981C2.64033 7.94756 2.68429 8.00436 2.7205 8.0612C2.75411 8.11544 2.79291 8.15933 2.80325 8.15162C2.79291 8.15678 2.75672 8.11543 2.72051 8.05859C2.68431 8.00179 2.64035 7.94754 2.62224 7.93719Z" fill="white"/>
<path d="M13.245 7.89157C13.2481 7.89367 13.251 7.89514 13.2536 7.89588C13.2684 7.90084 13.2998 7.88691 13.3205 7.86764C13.2997 7.88668 13.2683 7.89822 13.251 7.8933C13.251 7.8933 13.2471 7.8924 13.245 7.89157Z" fill="white"/>
<path d="M13.3484 7.81319C13.3576 7.77738 13.3622 7.72612 13.3622 7.65828C13.3622 7.52138 13.3544 7.4878 13.3182 7.47229C13.3029 7.4677 13.2731 7.46765 13.2396 7.47211C13.2513 7.47164 13.2622 7.47168 13.2717 7.47227C13.3493 7.47743 13.3493 7.47743 13.3545 7.65051C13.3575 7.72715 13.356 7.77831 13.3484 7.81319Z" fill="white"/>
<path d="M13.025 8.07963C13.0112 8.06689 12.9891 8.0597 12.9606 8.0587C12.9941 8.05968 13.0196 8.06767 13.025 8.07963Z" fill="white"/>
<path fill-rule="evenodd" clip-rule="evenodd" d="M2.37139 5.74692C2.23692 5.72625 2.04555 5.71074 1.94469 5.71334C1.84383 5.71334 1.64729 5.72625 1.50505 5.7366C1.36282 5.74692 1.16369 5.76758 1.06542 5.78049C0.967155 5.796 0.724062 5.84765 0.530106 5.89929C0.333565 5.95097 0.139609 6.01037 0.0956457 6.03104C0.0516827 6.0517 0.0103055 6.08528 0.0025471 6.10079C-0.00521114 6.11886 0.00513317 6.19117 0.0284079 6.26348C0.0516827 6.33323 0.131851 6.51402 0.206847 6.66384C0.281843 6.81365 0.411146 7.04093 0.496488 7.16749C0.579243 7.29408 0.721476 7.49294 0.81199 7.60658C0.905087 7.72022 1.06284 7.89846 1.16369 8.00434C1.26714 8.11027 1.39127 8.22647 1.4404 8.26264C1.48954 8.29882 1.53609 8.33495 1.54385 8.34271C1.55161 8.35046 1.6266 8.40211 1.71194 8.45895C1.79728 8.51319 1.94728 8.59585 2.04813 8.64234C2.14899 8.68623 2.32226 8.75082 2.43604 8.7818C2.59379 8.82313 2.71275 8.83604 2.9274 8.83604C3.08515 8.83345 3.27393 8.81798 3.3541 8.79731C3.43168 8.77665 3.54806 8.73531 3.61271 8.70949C3.67736 8.68107 3.78856 8.61392 3.85839 8.56227C3.96441 8.48221 3.99545 8.47186 4.03941 8.49512C4.06786 8.50803 4.17908 8.54676 4.28509 8.57774C4.3911 8.60876 4.50751 8.6449 4.54368 8.66041C4.55361 8.66395 4.56373 8.66768 4.57351 8.67129C4.59942 8.68085 4.62294 8.68953 4.63423 8.69138C4.64974 8.69398 4.7661 8.72756 4.89282 8.76629C5.01954 8.80507 5.18503 8.85411 5.25487 8.87478C5.27655 8.88097 5.31101 8.89087 5.35377 8.90315C5.45378 8.93189 5.59925 8.97369 5.73328 9.01168C5.92464 9.06852 6.14706 9.13823 6.22465 9.16925C6.30224 9.20023 6.40825 9.24932 6.45738 9.27774C6.50651 9.30872 6.61256 9.38618 6.69015 9.45337C6.7677 9.52053 6.87116 9.6135 6.92028 9.66259C6.96941 9.71163 7.07031 9.83047 7.1427 9.9312C7.21769 10.0319 7.31079 10.1817 7.34957 10.267C7.38839 10.3522 7.44011 10.5124 7.46338 10.6208C7.48664 10.7293 7.49959 10.8249 7.49184 10.8352C7.48404 10.843 7.40905 10.8093 7.32371 10.7603C7.2384 10.7112 7.11684 10.6518 7.0522 10.6286C6.98752 10.6053 6.91773 10.5769 6.89702 10.564C6.87635 10.5536 6.80132 10.5356 6.72893 10.5253C6.65909 10.5149 6.57119 10.4917 6.53497 10.4736C6.49875 10.4555 6.42896 10.4323 6.37979 10.4219C6.36359 10.4194 6.34318 10.416 6.32106 10.4123C6.27607 10.4048 6.22399 10.3961 6.18583 10.391C6.12895 10.3832 6.05911 10.3884 6.03069 10.4013C6.00223 10.4168 5.97121 10.4581 5.96086 10.4968C5.94535 10.5485 5.9557 10.5872 6.00483 10.6596C6.05911 10.7422 6.09277 10.7629 6.2117 10.7887C6.25286 10.7983 6.29258 10.8079 6.32272 10.8152C6.34939 10.8216 6.36857 10.8262 6.37463 10.8275C6.38499 10.8275 6.46773 10.8636 6.56083 10.9049C6.65394 10.9489 6.75995 11.0031 6.80132 11.0315C6.84014 11.0573 6.866 11.0883 6.8608 11.0987C6.85565 11.1116 6.87116 11.1193 6.89442 11.1193C6.91773 11.1193 6.93324 11.1348 6.93064 11.1503C6.92548 11.1684 6.93064 11.1787 6.94359 11.171C6.9539 11.1658 6.98496 11.1839 7.01338 11.2175C7.0496 11.2562 7.0522 11.2614 7.01858 11.2355C6.99272 11.2149 6.97201 11.202 6.97201 11.2097C6.97201 11.2175 6.99272 11.2484 7.01858 11.2795C7.04445 11.3104 7.08062 11.3363 7.09873 11.3389C7.11424 11.3389 7.12459 11.3569 7.11684 11.3776C7.1082 11.4034 7.11424 11.4095 7.13495 11.3957C7.15821 11.3827 7.16081 11.3905 7.14786 11.4215C7.13755 11.4499 7.1401 11.4629 7.15561 11.4551C7.17117 11.4473 7.18408 11.4577 7.18408 11.4732C7.18668 11.4912 7.18668 11.5248 7.18408 11.5455C7.18148 11.5661 7.19183 11.5894 7.20478 11.5972C7.22029 11.6049 7.2384 11.6385 7.24871 11.6746C7.25008 11.681 7.25161 11.688 7.25322 11.6954C7.26079 11.7302 7.27033 11.774 7.27458 11.8038C7.2769 11.8199 7.27973 11.8381 7.28238 11.8552C7.28566 11.8763 7.28867 11.8957 7.29009 11.9071C7.29269 11.9278 7.28753 11.9898 7.27718 12.0414C7.26682 12.0957 7.26942 12.1551 7.28233 12.1706C7.29528 12.1912 7.29009 12.3152 7.27202 12.4753C7.26659 12.5146 7.26116 12.5548 7.25593 12.5936C7.24118 12.7026 7.22793 12.8007 7.22029 12.8369C7.21254 12.886 7.18148 13.0306 7.15046 13.1598C7.12199 13.2889 7.06251 13.4852 7.02114 13.5989C6.97977 13.7125 6.89962 13.8804 6.84529 13.9734C6.79101 14.0664 6.66944 14.2162 6.57375 14.3092C6.48064 14.4022 6.38239 14.4874 6.35912 14.5029C6.33586 14.5158 6.25827 14.5468 6.18583 14.5726C6.10053 14.601 5.94535 14.6217 5.73328 14.632C5.55484 14.6372 4.66005 14.6527 3.74201 14.663C2.82396 14.6734 1.78435 14.6785 1.42747 14.6734C1.00595 14.6656 0.734408 14.6734 0.64648 14.694C0.555966 14.7121 0.496488 14.7431 0.470628 14.7793C0.449938 14.8128 0.431837 14.8826 0.431837 14.9342C0.431837 14.9988 0.449938 15.0505 0.483556 15.0841C0.535279 15.1357 0.568898 15.1357 2.074 15.1357H3.61271C3.55323 15.2545 3.53513 15.3191 3.53513 15.3553C3.53513 15.3914 3.54547 15.4431 3.56098 15.4715C3.5765 15.4999 3.61012 15.5361 3.63857 15.549C3.67994 15.5696 3.72908 15.5541 3.87907 15.4741C3.97993 15.4198 4.14027 15.3578 4.23336 15.3346C4.32646 15.3113 4.51526 15.2752 4.65489 15.2519C4.79197 15.2313 4.97297 15.208 5.05576 15.2003C5.13591 15.1925 5.22641 15.1822 5.25487 15.177C5.28333 15.1719 5.42296 15.1564 5.56519 15.146C5.75915 15.1331 5.81863 15.1357 5.80572 15.1564C5.79277 15.1744 5.7669 15.1822 5.74624 15.1744C5.72553 15.1667 5.71262 15.1744 5.72037 15.1873C5.72813 15.2003 5.69707 15.2416 5.65569 15.2778C5.61432 15.3139 5.56779 15.3423 5.55228 15.3423C5.53673 15.3423 5.50055 15.3656 5.46949 15.3966C5.43587 15.425 5.38419 15.4611 5.35313 15.4741C5.31951 15.487 5.13331 15.5205 4.93935 15.549C4.74284 15.5774 4.52558 15.6135 4.45318 15.629C4.38335 15.6445 4.31355 15.6678 4.298 15.6807C4.28249 15.6936 4.26698 15.6988 4.25923 15.691C4.25147 15.6859 4.17648 15.722 4.09113 15.7711C4.00579 15.8202 3.87907 15.8873 3.80666 15.9209C3.71874 15.9648 3.59719 15.9932 3.41875 16.0113C3.27652 16.0242 3.1317 16.0449 3.09549 16.0526C3.05929 16.0604 3.00239 16.0939 2.96619 16.1275C2.92998 16.1585 2.86533 16.1921 2.82396 16.2024C2.77999 16.2127 2.69465 16.2747 2.62483 16.3496C2.555 16.4194 2.50587 16.4788 2.51363 16.4788C2.52139 16.4788 2.48777 16.5124 2.4438 16.5537C2.36155 16.6256 2.35083 16.626 1.97742 16.6412L1.97055 16.6415C1.75849 16.6518 1.53609 16.6699 1.4792 16.6829C1.4223 16.6983 1.36541 16.7242 1.35506 16.7423C1.34472 16.7603 1.34214 16.8223 1.34989 16.8792C1.35506 16.936 1.38351 16.998 1.40679 17.016C1.4404 17.0393 1.58522 17.047 1.97055 17.0419C2.39467 17.0341 2.50328 17.0264 2.57828 16.9902C2.62741 16.967 2.74896 16.8663 2.84982 16.7681C2.95067 16.6699 3.05929 16.5718 3.09549 16.5486C3.1317 16.5279 3.24807 16.5021 3.3541 16.4917C3.46013 16.484 3.61788 16.471 3.70322 16.4633C3.78856 16.4581 3.92304 16.4401 4.00062 16.4246C4.0782 16.409 4.27734 16.3341 4.44027 16.2593C4.6756 16.1482 4.81523 16.1017 5.11264 16.0397C5.31951 15.9958 5.55228 15.9338 5.62983 15.9054C5.70742 15.877 5.83154 15.8253 5.90138 15.7892C5.97381 15.753 6.1186 15.6626 6.22465 15.5877C6.33066 15.5128 6.51431 15.4043 6.63323 15.3449C6.74963 15.2881 6.84529 15.2442 6.84529 15.2519C6.84529 15.2597 6.8634 15.2468 6.88667 15.2261C6.90737 15.2054 6.93839 15.1873 6.95135 15.1873C6.96426 15.1873 6.97461 15.2003 6.97461 15.2132C6.97461 15.2261 6.96166 15.2313 6.94359 15.2184C6.92288 15.2063 6.91773 15.2132 6.92804 15.239C6.93579 15.2597 6.92288 15.3087 6.89962 15.3501C6.87635 15.3888 6.85049 15.4198 6.84014 15.4198C6.82718 15.4198 6.81943 15.4353 6.81943 15.4508C6.82203 15.4689 6.79101 15.5154 6.75479 15.5541C6.71857 15.5955 6.69015 15.6393 6.69015 15.6523C6.69015 15.6652 6.59961 15.7607 6.491 15.8641C6.34877 15.9932 6.22981 16.0759 6.08242 16.1456C5.96861 16.1973 5.7695 16.2644 5.64278 16.2928C5.51606 16.3212 5.35832 16.3522 5.29364 16.3626C5.22901 16.3703 5.11264 16.3961 5.03505 16.4168C4.95746 16.4401 4.81783 16.4943 4.72473 16.5382C4.61612 16.5899 4.50231 16.6751 4.40405 16.7758C4.30404 16.8792 4.22045 16.9997 4.1532 17.1374C4.09889 17.2511 4.01355 17.4887 3.96183 17.6669C3.90752 17.8529 3.84028 18.0337 3.7989 18.0931C3.75753 18.1499 3.67994 18.2223 3.62564 18.2532C3.56874 18.2868 3.4291 18.3488 3.31531 18.3927C3.20152 18.434 3.08773 18.4909 3.06188 18.5141C3.03601 18.5374 3.01533 18.5942 3.01791 18.6355C3.01791 18.6768 3.03084 18.7337 3.04894 18.7595C3.06704 18.7879 3.12135 18.8111 3.17308 18.8163C3.22221 18.8189 3.27393 18.8137 3.28945 18.8034C3.30496 18.7931 3.40582 18.7543 3.51702 18.7156C3.62564 18.6794 3.77563 18.62 3.84545 18.5839C3.91786 18.5477 4.01614 18.4805 4.06786 18.434C4.11958 18.3902 4.19459 18.292 4.23336 18.2223C4.27474 18.1499 4.34973 17.9536 4.40145 17.7832C4.45318 17.6127 4.53337 17.4086 4.57475 17.3312C4.61868 17.2537 4.69627 17.1503 4.74799 17.1013C4.79972 17.0522 4.90058 16.985 4.97041 16.9541C5.0454 16.9179 5.25747 16.8663 5.48244 16.8275C5.69191 16.7913 5.91689 16.7449 5.98672 16.7216C6.05396 16.7009 6.2143 16.6312 6.34102 16.5692C6.46773 16.5046 6.63067 16.4116 6.70046 16.3574C6.7703 16.3032 6.85049 16.2412 6.87891 16.2205C6.92804 16.1818 6.92804 16.1844 6.91253 16.3238C6.90477 16.4013 6.88151 16.5072 6.8608 16.5563C6.84014 16.6054 6.79616 16.6725 6.76255 16.7035C6.73153 16.7345 6.63843 16.7887 6.56083 16.8249C6.48324 16.8611 6.4031 16.8921 6.38759 16.8921C6.36948 16.8921 6.28669 16.9256 6.20654 16.9695C6.12379 17.0109 6.01774 17.0832 5.96861 17.1297C5.92208 17.1762 5.85485 17.2666 5.82379 17.3312C5.79017 17.3957 5.75655 17.4991 5.74624 17.5636C5.73588 17.6282 5.72813 17.8787 5.72553 18.1215C5.72037 18.4934 5.71262 18.5735 5.6764 18.6123C5.65314 18.6407 5.57814 18.6897 5.50831 18.7259C5.44107 18.7595 5.35057 18.8189 5.30915 18.8551C5.26778 18.8912 5.20054 18.9713 5.15917 19.0359C5.10229 19.1288 5.08678 19.1831 5.08678 19.2942C5.08678 19.3716 5.10229 19.4646 5.1204 19.5008C5.1385 19.5369 5.17468 19.5705 5.20314 19.5731C5.23161 19.5782 5.28073 19.5757 5.31435 19.5679C5.34797 19.5576 5.38674 19.5163 5.41001 19.462C5.43072 19.413 5.45142 19.3355 5.45658 19.2916C5.45918 19.2477 5.47985 19.1986 5.50055 19.1779C5.52122 19.1599 5.61432 19.1056 5.70742 19.0591C5.80052 19.01 5.91433 18.9403 5.96346 18.9067C6.01258 18.8705 6.06947 18.8008 6.09018 18.7517C6.11344 18.6897 6.12379 18.5683 6.1212 18.3643C6.1186 18.2016 6.1186 17.9795 6.1186 17.8735C6.1212 17.7108 6.13155 17.6618 6.18583 17.5765C6.22205 17.5197 6.28929 17.4474 6.33586 17.4164C6.38239 17.3828 6.50911 17.3234 6.62032 17.2795C6.72893 17.2382 6.8634 17.1736 6.91773 17.14C6.96945 17.1064 7.05736 17.0341 7.11168 16.9799C7.16857 16.923 7.24871 16.8043 7.29269 16.7113C7.37288 16.5486 7.37543 16.533 7.37543 16.205V15.8667C7.57714 15.6368 7.64438 15.5515 7.65733 15.5257C7.6806 15.4896 7.6858 15.4921 7.70131 15.549C7.71162 15.5851 7.71942 16.2799 7.72197 17.0909C7.72457 18.044 7.71422 18.5916 7.69871 18.6277C7.6832 18.6613 7.59525 18.7569 7.50215 18.8422C7.39354 18.9403 7.3082 19.0436 7.26942 19.1263C7.22029 19.227 7.20734 19.2993 7.20734 19.462C7.20734 19.6248 7.21769 19.6867 7.25907 19.7513C7.29788 19.8133 7.3289 19.8365 7.38063 19.8365C7.422 19.8365 7.47629 19.821 7.50475 19.8004C7.54612 19.7694 7.55908 19.7255 7.56939 19.5421C7.58234 19.3329 7.5875 19.3174 7.67284 19.2296C7.72197 19.1805 7.7711 19.1392 7.78405 19.1392C7.79441 19.1392 7.80216 19.4956 7.79956 19.9321C7.79696 20.5494 7.80472 20.7431 7.83318 20.7999C7.85129 20.8413 7.89006 20.88 7.91853 20.8852C7.94699 20.893 7.99868 20.8955 8.03489 20.8904C8.07886 20.8852 8.11508 20.8542 8.1435 20.7922C8.18488 20.7121 8.19007 20.6088 8.19007 19.9528C8.19007 19.5395 8.19263 19.2011 8.19783 19.1986C8.20039 19.196 8.25211 19.2399 8.31159 19.2967L8.4228 19.3974C8.40989 19.7797 8.41505 19.7927 8.48229 19.852C8.52106 19.8856 8.56763 19.914 8.5883 19.914C8.60641 19.914 8.65298 19.883 8.69175 19.8417C8.74088 19.7927 8.76159 19.741 8.76419 19.6687C8.76674 19.6119 8.76674 19.4956 8.76159 19.4104C8.75899 19.3174 8.73832 19.2244 8.70726 19.1779C8.6814 19.1366 8.57539 19.0229 8.47193 18.9274L8.28057 18.7517C8.28057 15.8176 8.28833 15.4792 8.31419 15.487C8.3297 15.4921 8.34521 15.5128 8.34521 15.5283C8.34521 15.5464 8.40989 15.6316 8.49004 15.7169C8.62192 15.8589 8.63227 15.8796 8.61676 15.9622C8.60641 16.0113 8.59609 16.0991 8.5909 16.1559C8.58574 16.2127 8.5909 16.3341 8.60385 16.4272C8.61936 16.5201 8.66333 16.6647 8.70471 16.75C8.74864 16.8352 8.81587 16.9411 8.85469 16.985C8.89346 17.0289 8.98656 17.0961 9.0564 17.1297C9.12879 17.1658 9.25035 17.2098 9.32795 17.2278C9.40554 17.2459 9.4986 17.2743 9.53481 17.2924C9.57103 17.3105 9.63051 17.3595 9.66673 17.4009C9.7055 17.4396 9.75203 17.5094 9.77534 17.5507C9.796 17.592 9.83222 17.6928 9.85809 17.7703C9.88395 17.8477 9.94859 17.9872 10.0003 18.0802C10.0546 18.1732 10.1451 18.292 10.2046 18.3437C10.2667 18.4005 10.4684 18.5167 10.6934 18.6226C10.9029 18.7233 11.0942 18.8163 11.1201 18.8292C11.1433 18.8447 11.1899 18.8551 11.2235 18.8551C11.2546 18.8551 11.3063 18.8266 11.3399 18.7905C11.3709 18.7543 11.3968 18.7001 11.3968 18.6665C11.3968 18.6355 11.3865 18.5968 11.3761 18.5813C11.3658 18.5658 11.3063 18.5193 11.2416 18.478C11.177 18.434 11.0115 18.3437 10.8692 18.2739C10.7296 18.2016 10.5744 18.1034 10.5253 18.0543C10.4762 18.0053 10.4218 17.9355 10.4011 17.8994C10.3831 17.8632 10.3261 17.7186 10.277 17.5765C10.2279 17.4345 10.171 17.2821 10.1477 17.2407C10.127 17.1994 10.0702 17.1245 10.021 17.0755C9.97445 17.0289 9.8943 16.9695 9.84513 16.9437C9.79601 16.9179 9.65638 16.8688 9.53481 16.8352C9.41329 16.8017 9.28397 16.7552 9.2452 16.7293C9.20378 16.7061 9.15466 16.6596 9.13399 16.626C9.11068 16.595 9.08486 16.4969 9.07451 16.4065C9.06156 16.2851 9.06415 16.2463 9.09002 16.2463C9.10553 16.2463 9.12624 16.2644 9.13399 16.2851C9.14174 16.3058 9.15985 16.3238 9.17276 16.3238C9.18572 16.3238 9.27622 16.3729 9.37448 16.4349C9.47018 16.4969 9.62531 16.5769 9.72361 16.6157C9.81927 16.6544 9.98736 16.7087 10.0986 16.7397C10.2072 16.7681 10.3029 16.7965 10.3106 16.8017C10.3184 16.8068 10.3753 16.8172 10.44 16.8249C10.5046 16.8352 10.6365 16.8611 10.7374 16.8843C10.8382 16.905 10.9779 16.9515 11.0477 16.985C11.1201 17.016 11.2261 17.0961 11.2882 17.1607C11.3477 17.2252 11.4226 17.3337 11.4563 17.4009C11.4899 17.4706 11.5494 17.6411 11.5882 17.7832C11.6296 17.9252 11.689 18.0983 11.7201 18.1706C11.7485 18.2403 11.8209 18.3488 11.8778 18.4108C11.9321 18.4728 12.0485 18.558 12.1338 18.5968C12.2192 18.6381 12.3588 18.6949 12.4442 18.7233C12.5295 18.7491 12.6459 18.7802 12.7027 18.7905C12.7803 18.8034 12.7958 18.8137 12.7674 18.8318C12.7416 18.8473 12.7398 18.8551 12.7622 18.8551C12.7777 18.8551 12.801 18.8422 12.814 18.8266C12.8243 18.8111 12.8502 18.8034 12.8708 18.8111C12.8915 18.8189 12.9329 18.8008 12.9614 18.7724C12.9898 18.7414 12.9976 18.7259 12.982 18.7337C12.9562 18.7466 12.951 18.7311 12.9639 18.6665C12.9717 18.6174 12.9639 18.5658 12.9433 18.5374C12.9252 18.5115 12.8579 18.4831 12.7958 18.4728C12.7338 18.4625 12.6743 18.4366 12.664 18.416C12.6536 18.3953 12.5812 18.3566 12.5062 18.3307C12.4234 18.3049 12.3252 18.2455 12.2683 18.1887C12.2114 18.1344 12.1467 18.0337 12.1183 17.9562C12.0925 17.8839 12.0692 17.7986 12.0692 17.7703C12.0692 17.7418 12.0588 17.6928 12.0459 17.6592C12.033 17.6282 11.9916 17.5042 11.9554 17.3828C11.9166 17.2614 11.8494 17.1038 11.8028 17.0315C11.7563 16.9566 11.6683 16.8404 11.6037 16.7732C11.5365 16.7009 11.4123 16.6105 11.3063 16.5563C11.2054 16.5046 11.0839 16.4478 11.0347 16.4323C10.9856 16.4142 10.8098 16.3755 10.6468 16.3471C10.4839 16.3187 10.2693 16.267 10.1684 16.236C10.0676 16.2024 9.93048 16.1456 9.85809 16.1095C9.78825 16.0733 9.67188 15.9932 9.59945 15.9338C9.52966 15.8718 9.43136 15.7737 9.37967 15.7194C9.3305 15.6652 9.25811 15.5774 9.22189 15.5257C9.18572 15.4741 9.12104 15.3759 9.07966 15.3062L9.00467 15.177C9.18572 15.2752 9.2452 15.3165 9.25551 15.3294C9.26587 15.3423 9.27622 15.3475 9.27622 15.3346C9.27622 15.3242 9.33826 15.3475 9.41329 15.3836C9.48569 15.4198 9.64602 15.5179 9.76758 15.5981C9.88911 15.6807 10.0494 15.7762 10.1244 15.815C10.1969 15.8538 10.3261 15.9028 10.4089 15.9261C10.4891 15.9493 10.7141 16.001 10.9055 16.0397C11.0968 16.081 11.2985 16.1327 11.3529 16.1611C11.4045 16.1869 11.4485 16.2127 11.4485 16.2205C11.4485 16.2283 11.464 16.2334 11.4821 16.236C11.4976 16.236 11.583 16.2722 11.6683 16.3109C11.7537 16.3522 11.8933 16.4013 11.9787 16.4194C12.064 16.4401 12.2787 16.4633 12.4571 16.4736C12.7053 16.4891 12.7984 16.5046 12.8579 16.5434C12.8993 16.5692 12.995 16.6518 13.0648 16.7242C13.1372 16.7965 13.2355 16.8869 13.2846 16.923C13.3337 16.9592 13.4165 17.0031 13.4657 17.0186C13.5225 17.0393 13.7165 17.0496 13.9828 17.047C14.2182 17.047 14.4484 17.0367 14.4975 17.0264C14.5596 17.0135 14.5983 16.985 14.6242 16.9308C14.6449 16.8895 14.6553 16.8327 14.6449 16.8068C14.6372 16.7836 14.5983 16.7423 14.5596 16.719C14.5027 16.6854 14.3941 16.6699 14.0863 16.6544C13.7682 16.6389 13.6622 16.6235 13.5769 16.5821C13.4993 16.546 13.4502 16.4995 13.4165 16.4323C13.3907 16.3807 13.326 16.298 13.2743 16.2515C13.2226 16.2076 13.1346 16.1456 13.0777 16.1172C13.0209 16.0888 12.8734 16.0501 12.7493 16.0294C12.6226 16.0087 12.4571 15.9855 12.3795 15.9777C12.2761 15.9648 12.1933 15.9338 12.0692 15.8589C11.9761 15.8021 11.8494 15.7298 11.7847 15.7013C11.7201 15.6704 11.5882 15.629 11.4873 15.6084C11.3865 15.5877 11.283 15.567 11.2546 15.5645C11.2261 15.5593 11.1278 15.5464 11.0347 15.5361C10.9416 15.5231 10.8589 15.5102 10.8485 15.505C10.8436 15.5031 10.839 15.5015 10.8351 15.5001C10.8288 15.4979 10.8243 15.4963 10.8227 15.4947C10.8189 15.4947 10.7971 15.4906 10.7695 15.4853C10.7594 15.4834 10.7485 15.4813 10.7374 15.4792C10.6959 15.4741 10.5951 15.4327 10.5175 15.394C10.44 15.3527 10.3365 15.2881 10.2925 15.2468C10.246 15.208 10.2072 15.1667 10.2072 15.1538C10.2072 15.1434 10.2305 15.1357 10.2589 15.1357C10.2874 15.1357 10.3106 15.1228 10.3106 15.1099C10.3106 15.097 10.3365 15.0841 10.3701 15.0841C10.4011 15.0841 10.4451 15.1021 10.4658 15.1202C10.4865 15.1409 10.5925 15.1641 10.6985 15.1744C10.8046 15.1848 10.8977 15.1951 10.9055 15.2003C10.9132 15.2054 10.9986 15.2158 11.0994 15.2261C11.2003 15.2339 11.3787 15.2597 11.5002 15.2804C11.6218 15.301 11.7614 15.3294 11.8106 15.3449C11.8597 15.3604 11.9864 15.4198 12.0899 15.4741L12.0977 15.4783C12.2736 15.5723 12.277 15.5741 12.3433 15.5283C12.3795 15.505 12.4157 15.456 12.4234 15.4198C12.4312 15.3836 12.4312 15.3268 12.4234 15.2907C12.4157 15.2545 12.4028 15.2054 12.395 15.1796C12.3795 15.1383 12.4649 15.1357 13.9079 15.1279L15.4362 15.1228C15.5138 15.0221 15.5371 14.9575 15.5371 14.9162C15.5345 14.8748 15.5164 14.8128 15.4957 14.7793C15.475 14.7483 15.4259 14.7095 15.3871 14.694C15.338 14.6759 14.4872 14.663 12.7674 14.6579C11.327 14.6527 10.1581 14.6372 10.0779 14.6217C10.0003 14.6088 9.88911 14.5856 9.83222 14.5701C9.77534 14.5545 9.65893 14.5029 9.57363 14.4513C9.48828 14.4022 9.37447 14.3117 9.31759 14.2498C9.26327 14.1904 9.18312 14.0716 9.13915 13.9863C9.09517 13.9011 9.02018 13.7383 8.97105 13.6247C8.92452 13.5111 8.85729 13.307 8.82367 13.1727C8.78745 13.0384 8.74348 12.7982 8.72281 12.6432C8.70471 12.4883 8.68915 12.23 8.69435 12.075C8.69951 11.92 8.71762 11.7392 8.73572 11.6746C8.75383 11.6101 8.77194 11.5532 8.7745 11.5455C8.77552 11.5424 8.77734 11.5358 8.77981 11.5268C8.78361 11.5129 8.78893 11.4935 8.79521 11.4732C8.80296 11.4422 8.82367 11.4164 8.83658 11.4164C8.84949 11.4164 8.85729 11.4034 8.84949 11.3905C8.84174 11.3776 8.85469 11.3595 8.87535 11.3518C8.89606 11.344 8.91417 11.3234 8.91417 11.3053C8.91157 11.2898 8.97365 11.2175 9.04864 11.1503C9.12364 11.0806 9.22965 11.0031 9.28137 10.9747C9.3357 10.9489 9.39518 10.9333 9.41069 10.9437C9.43312 10.9574 9.43739 10.9532 9.4236 10.9308C9.41329 10.9127 9.42105 10.8946 9.44431 10.8869C9.46498 10.8791 9.50379 10.8817 9.52706 10.892C9.56068 10.9049 9.56843 10.9024 9.55292 10.8791C9.54001 10.8584 9.57879 10.8352 9.68224 10.8068C9.76499 10.7835 9.85289 10.7551 9.87619 10.7422C9.91237 10.7241 9.92013 10.7267 9.90981 10.7577C9.90206 10.7784 9.90462 10.7964 9.91497 10.7964C9.92792 10.7964 9.93823 10.7396 9.94083 10.6673C9.94599 10.5795 9.93568 10.5253 9.90981 10.4994C9.88911 10.4788 9.82707 10.4529 9.77274 10.4426C9.69775 10.4297 9.65378 10.44 9.57363 10.4865C9.4986 10.5304 9.41069 10.5511 9.25035 10.564C9.10293 10.5769 8.97881 10.6053 8.8676 10.6518C8.79316 10.6824 8.71126 10.7205 8.66751 10.7408C8.65959 10.7445 8.65293 10.7476 8.64778 10.75C8.61676 10.7681 8.57023 10.8016 8.54437 10.8223C8.52106 10.843 8.49524 10.8559 8.49004 10.8481C8.48229 10.8404 8.4952 10.7603 8.51331 10.6673C8.53401 10.5743 8.56763 10.4478 8.5909 10.3832C8.61416 10.3186 8.67109 10.1972 8.72021 10.112C8.76674 10.0268 8.88055 9.8692 8.97105 9.76332C9.06415 9.65739 9.19603 9.52308 9.26587 9.46629C9.3357 9.40944 9.45722 9.32423 9.53481 9.27774C9.6124 9.23121 9.84513 9.14083 10.052 9.07624C10.155 9.04411 10.2784 9.00495 10.395 8.96798C10.5126 8.93066 10.6232 8.89557 10.6985 8.87222C10.833 8.82823 11.1252 8.73653 11.3799 8.65663C11.4094 8.64737 11.4384 8.63828 11.4666 8.62943L11.9657 8.47186C12.095 8.57519 12.214 8.6449 12.3148 8.69138C12.4157 8.73791 12.5605 8.78956 12.6381 8.80762C12.7157 8.82313 12.8889 8.83604 13.0183 8.83604C13.1605 8.83345 13.3467 8.81278 13.4708 8.7818C13.5898 8.75598 13.7372 8.71205 13.8018 8.68623C13.8665 8.66041 13.9648 8.61132 14.0217 8.58034C14.0667 8.5558 14.1313 8.51826 14.1806 8.48959C14.1935 8.48207 14.2054 8.47516 14.2156 8.46926C14.2647 8.44088 14.3863 8.35306 14.4872 8.27815C14.588 8.20325 14.7613 8.04312 14.8751 7.92428C14.9888 7.80804 15.1544 7.61693 15.2397 7.50329C15.325 7.38961 15.4362 7.23208 15.488 7.15457C15.5371 7.07711 15.6354 6.91438 15.7 6.79299C15.7673 6.67159 15.8629 6.48304 15.9121 6.37196C15.9612 6.26348 16 6.15503 16 6.13437C16 6.1137 15.9741 6.07753 15.9405 6.05686C15.9095 6.03619 15.7957 5.99231 15.6897 5.96389C15.5837 5.93287 15.3794 5.88382 15.2371 5.85024C15.0949 5.81667 14.8906 5.77789 14.7845 5.76243C14.6785 5.74692 14.4613 5.72625 14.3061 5.7185C14.0889 5.70558 13.9725 5.71074 13.8148 5.74432C13.7538 5.75677 13.6759 5.77293 13.6011 5.78843C13.5362 5.80188 13.4737 5.81482 13.4268 5.82442C13.326 5.84505 13.1993 5.86571 13.1424 5.87091C13.0855 5.87607 12.8993 5.93546 12.7286 6.00522C12.558 6.07237 12.3433 6.17566 12.2502 6.23765C12.1571 6.29705 12.0175 6.41589 11.9399 6.50111C11.8623 6.58637 11.7614 6.72583 11.7149 6.8085C11.6709 6.89112 11.6166 7.03062 11.5933 7.11584C11.5701 7.20106 11.552 7.36899 11.552 7.49038C11.552 7.62984 11.5701 7.76931 11.6011 7.87779C11.627 7.97077 11.658 8.06378 11.6657 8.08441C11.6787 8.11283 11.6528 8.13094 11.5726 8.15416C11.5106 8.17223 11.3865 8.2058 11.2934 8.22907C11.2003 8.25233 11.0968 8.273 11.0606 8.27815C11.0287 8.28269 10.8687 8.32124 10.6845 8.36562C10.6594 8.37168 10.6338 8.37784 10.608 8.38404C10.396 8.43828 10.2046 8.49768 10.1865 8.51579C10.1684 8.53386 10.1244 8.54936 10.0883 8.54936C10.0546 8.54936 9.92532 8.57259 9.8012 8.60101C9.67448 8.63199 9.50895 8.67847 9.43136 8.70689C9.35381 8.73791 9.27622 8.76373 9.26327 8.76629C9.25035 8.76889 9.20898 8.78696 9.17276 8.80762C9.13655 8.82829 9.07191 8.86187 9.02538 8.88253C8.98141 8.9058 8.8702 8.9807 8.78225 9.05301C8.69435 9.12277 8.58054 9.22349 8.52886 9.27514C8.47713 9.32678 8.4202 9.39138 8.40214 9.4172C8.37883 9.45078 8.36592 9.45593 8.35817 9.43271C8.35041 9.4172 8.33746 9.40685 8.3271 9.41204C8.31419 9.4172 8.30384 9.36296 8.29868 9.29065C8.29349 9.21574 8.30384 9.0401 8.31935 8.89804C8.33746 8.75598 8.36332 8.60361 8.38143 8.56227C8.39954 8.52094 8.50299 8.37888 8.609 8.25233C8.71502 8.12574 9.03313 7.76931 9.31499 7.46452C9.59689 7.15977 9.8943 6.83172 9.97705 6.73359C10.0753 6.62251 10.1296 6.53729 10.1296 6.49595C10.1296 6.45978 10.0986 6.40298 10.0572 6.36165C10.0003 6.30741 9.97185 6.29705 9.90981 6.31256C9.85809 6.32292 9.74172 6.42105 9.54777 6.61995C9.38999 6.77748 9.08226 7.09778 8.86244 7.33021C8.64262 7.56009 8.44867 7.77966 8.43576 7.81579C8.4228 7.84937 8.40214 7.87779 8.38919 7.87779C8.37883 7.87779 8.3323 7.90881 8.28573 7.94754C8.2418 7.98628 8.21594 8.00179 8.22885 7.98112C8.24436 7.96045 8.25987 7.91137 8.26247 7.87004C8.26507 7.8313 8.25731 7.80548 8.2418 7.81324C8.22625 7.82099 8.21594 7.78997 8.21594 7.74089C8.21594 7.68409 8.18747 7.62984 8.12539 7.56009C8.053 7.48518 8.01678 7.46452 7.94439 7.46452C7.87975 7.46452 7.84353 7.48003 7.81507 7.52136C7.78665 7.56269 7.7763 7.64791 7.7763 7.80033V8.01985C7.56683 7.80033 7.41425 7.6376 7.30044 7.5162C7.18923 7.39481 7.06511 7.28117 7.02374 7.26306C6.98237 7.24759 6.94875 7.21142 6.94875 7.18559C6.94875 7.16233 6.87635 7.06676 6.78581 6.97378C6.69531 6.88081 6.51171 6.69226 6.37723 6.55535C6.16777 6.33838 6.1212 6.30225 6.0488 6.30225C5.98672 6.30225 5.94795 6.32292 5.90138 6.37971C5.86516 6.42105 5.83674 6.47269 5.83674 6.4882C5.83674 6.50627 5.8574 6.5528 5.88327 6.58893C5.90657 6.6251 5.96861 6.70001 6.01774 6.75425C6.06691 6.81105 6.19619 6.95056 6.30224 7.0642C6.40825 7.17784 6.5841 7.36899 6.69015 7.49038C6.79616 7.60918 6.91773 7.74348 6.9591 7.78482C6.97411 7.80181 6.99765 7.8281 7.02522 7.85888C7.06887 7.90762 7.12261 7.96762 7.16857 8.01985L7.17831 8.03093C7.25145 8.11404 7.33832 8.21277 7.37543 8.25233C7.41165 8.29362 7.48149 8.39179 7.53061 8.4641C7.57974 8.53901 7.62631 8.63199 7.62887 8.67076C7.63407 8.71205 7.64698 8.75858 7.65473 8.77405C7.66509 8.79215 7.6806 8.9626 7.69095 9.14859C7.70386 9.39913 7.69871 9.49726 7.678 9.51017C7.65993 9.52309 7.64182 9.51533 7.63407 9.49211C7.62543 9.46629 7.63147 9.45937 7.65218 9.47144C7.67284 9.48519 7.67888 9.4792 7.67024 9.45337C7.66249 9.43271 7.64438 9.4146 7.62887 9.4146C7.61596 9.4146 7.53577 9.33969 7.45043 9.24932C7.36768 9.1589 7.22285 9.03495 7.12975 8.97551C7.03669 8.91611 6.91513 8.8438 6.85824 8.81538C6.82739 8.79997 6.79122 8.7823 6.7588 8.76646C6.73142 8.75308 6.70672 8.74101 6.69015 8.73272C6.65394 8.71725 6.53237 8.67592 6.41861 8.64234C6.3048 8.60616 6.00223 8.53126 5.74624 8.47446C5.64203 8.45027 5.50828 8.41966 5.3678 8.38753C5.16312 8.3407 4.94418 8.29061 4.78161 8.25233L4.28509 8.13609C4.3911 7.85972 4.39886 7.78742 4.40145 7.47743V7.11584C4.25663 6.81621 4.15837 6.65868 4.09113 6.57342C4.02389 6.4882 3.90752 6.3694 3.83511 6.31C3.7627 6.25056 3.58168 6.14984 3.43168 6.08268C3.28169 6.01813 3.12394 5.95353 3.08256 5.94062C3.04118 5.92771 2.91705 5.88638 2.81102 5.85024C2.705 5.81407 2.50587 5.76758 2.37139 5.74692ZM3.38076 6.99695L3.33081 7.01253L3.49632 7.17526L3.72906 6.96864C3.50666 6.77234 3.42908 6.7155 3.41098 6.7155C3.3877 6.7155 3.38253 6.68712 3.39546 6.60706L3.41098 6.49597C3.25581 6.4624 3.19892 6.44689 3.1834 6.44173C3.16789 6.43398 3.15237 6.47015 3.14461 6.52439C3.13427 6.61997 3.13168 6.62252 2.98686 6.65095C2.89635 6.66645 2.81618 6.70259 2.77222 6.74136C2.73342 6.7775 2.68429 6.83949 2.66619 6.87823C2.6455 6.917 2.62998 7.00998 2.62998 7.08488C2.62998 7.17442 2.64722 7.24761 2.68171 7.30441C2.71015 7.3509 2.79032 7.42065 2.86273 7.45938C2.93514 7.49811 3.04117 7.56271 3.09548 7.60144C3.16789 7.65309 3.19892 7.69186 3.19892 7.73575C3.19892 7.77448 3.17306 7.81841 3.13944 7.84163C3.10324 7.8675 3.04117 7.87781 2.9791 7.87265C2.91962 7.8675 2.83428 7.83648 2.78515 7.79775C2.73342 7.76417 2.66619 7.69702 2.63515 7.65053L2.57826 7.56787C2.37913 7.72024 2.31965 7.77192 2.31965 7.78224C2.31965 7.79259 2.35068 7.83908 2.38948 7.88297C2.42827 7.9269 2.51361 7.9992 2.57826 8.04314C2.64033 8.08702 2.70239 8.13351 2.71015 8.14902C2.7205 8.16453 2.71791 8.21102 2.70498 8.25235C2.69205 8.29624 2.68171 8.34017 2.68171 8.35048C2.68171 8.36083 2.73084 8.3789 2.79032 8.38921C2.8498 8.39957 2.91187 8.40732 2.92479 8.40732C2.93773 8.40732 2.95066 8.38666 2.95583 8.35564C2.95841 8.32722 2.96876 8.28333 2.97652 8.25235C2.98428 8.21617 3.01789 8.19811 3.10582 8.1826C3.17047 8.17225 3.27133 8.14127 3.32822 8.11029C3.40581 8.07151 3.44718 8.02763 3.49632 7.9243C3.53252 7.84939 3.56097 7.75642 3.56097 7.71768C3.56097 7.67895 3.54287 7.6066 3.52218 7.55496C3.4989 7.50587 3.43167 7.43096 3.37219 7.38447C3.31271 7.34059 3.24547 7.29925 3.22478 7.2915C3.2015 7.28374 3.13427 7.24241 3.07479 7.20368C2.98686 7.14428 2.96617 7.11586 2.96617 7.05131C2.96617 6.99707 2.9791 6.97124 3.01789 6.96089C3.04634 6.95573 3.06186 6.93507 3.0541 6.917C3.0541 6.917 3.05294 6.91342 3.05279 6.91135C3.05691 6.91564 3.06253 6.91996 3.06963 6.9247C3.09032 6.93761 3.1498 6.95827 3.19894 6.97378C3.24807 6.98669 3.31531 6.9996 3.34893 6.9996C3.35825 6.9996 3.36922 6.99867 3.38076 6.99695ZM13.0838 7.59038C13.0714 7.56178 13.0623 7.541 13.0596 7.53427C13.0566 7.52816 13.0653 7.51931 13.081 7.51043C13.0489 7.5171 13.0192 7.52138 13.0002 7.52138C12.9639 7.52138 12.8553 7.49296 12.7571 7.45938C12.6226 7.41549 12.5579 7.37672 12.5036 7.30957C12.4623 7.25532 12.426 7.1727 12.4157 7.10295C12.4002 7.01253 12.4105 6.95829 12.4519 6.86276C12.4984 6.76203 12.5295 6.73101 12.6381 6.68192C12.7622 6.62768 12.7648 6.62252 12.7674 6.51404V6.40556H13.026L13.0338 6.49857C13.0389 6.58639 13.0441 6.59155 13.2122 6.64579C13.3079 6.67677 13.4062 6.72325 13.432 6.74652C13.476 6.78785 13.4734 6.79301 13.2769 7.01253L13.1579 6.95313C13.0907 6.91956 12.9924 6.89633 12.9277 6.89633C12.8398 6.89633 12.8114 6.90925 12.7726 6.96349C12.7415 7.01253 12.7364 7.04095 12.7545 7.06937C12.7674 7.09004 12.8088 7.12362 12.845 7.14168C12.8812 7.16235 12.995 7.20368 13.101 7.23726C13.2484 7.28374 13.3105 7.31732 13.3777 7.39223C13.4268 7.44647 13.4734 7.52913 13.4812 7.57302C13.4889 7.61951 13.4837 7.70477 13.4682 7.76157C13.4553 7.81841 13.4191 7.89588 13.3906 7.93721C13.3596 7.97598 13.2898 8.03022 13.2329 8.0586C13.176 8.08702 13.1062 8.11029 13.0777 8.11029C13.0622 8.11029 13.0483 8.10721 13.0388 8.1019V8.1019C13.0457 8.12478 13.0385 8.15642 13.0259 8.17575C13.0474 8.15981 13.0519 8.18594 13.0519 8.36855H12.7932L12.7803 8.12836L12.6381 8.07927C12.5605 8.05345 12.4571 8.0018 12.4105 7.96823C12.3666 7.93205 12.3277 7.88816 12.3277 7.87006C12.3303 7.85459 12.3666 7.79515 12.4959 7.64537L12.6329 7.73575C12.7467 7.81066 12.7907 7.82617 12.9096 7.82617C13.0208 7.82617 13.0622 7.81326 13.0984 7.77448C13.1185 7.7509 13.1294 7.73809 13.139 7.73899C13.1505 7.74007 13.1601 7.76058 13.1812 7.8055L13.183 7.8093C13.1812 7.80537 13.1793 7.80123 13.1773 7.79694C13.1624 7.76489 13.1434 7.72365 13.1243 7.68409C13.1094 7.64948 13.0952 7.61664 13.0838 7.59038Z" fill="white"/>
<path d="M4.37559 9.13048C4.28249 9.10726 4.11699 9.09174 3.96183 9.09434C3.8196 9.0969 3.66702 9.10466 3.62564 9.11501C3.58426 9.12792 3.46013 9.16665 3.3541 9.20539C3.24807 9.24416 3.10067 9.30612 3.03084 9.34489C2.95843 9.38362 2.89637 9.4198 2.88861 9.42751C2.88331 9.43281 2.85751 9.45255 2.82356 9.47853C2.8078 9.49059 2.79027 9.504 2.77223 9.51793C2.71534 9.55926 2.62741 9.63932 2.57828 9.69357C2.5613 9.71231 2.53815 9.73783 2.51213 9.76651C2.46285 9.82085 2.40327 9.88653 2.35588 9.93896C2.28347 10.0216 2.16968 10.1636 2.10503 10.2592C2.03779 10.3574 1.98865 10.4504 1.99641 10.4658C2.00417 10.4839 2.06882 10.5149 2.14382 10.533C2.21881 10.5511 2.38432 10.5821 2.51363 10.6027C2.64035 10.6234 2.84464 10.6415 2.96619 10.6415C3.08773 10.6415 3.25583 10.6286 3.34117 10.6156C3.42651 10.6002 3.54288 10.5692 3.59978 10.5433C3.65667 10.5201 3.82477 10.4219 3.97476 10.3238C4.12475 10.2256 4.31611 10.1094 4.40145 10.0655C4.4868 10.0242 4.70922 9.926 4.89282 9.84854C5.07642 9.77363 5.24452 9.71163 5.26003 9.71163C5.27813 9.71163 5.29109 9.70132 5.28589 9.68841C5.28333 9.6755 5.19279 9.59284 5.08678 9.50502C4.98072 9.4198 4.81263 9.30871 4.71178 9.25963C4.61092 9.21058 4.46094 9.15114 4.37559 9.13048Z" fill="white"/>
<path d="M12.4312 9.13048C12.3511 9.10981 12.1752 9.09434 12.0304 9.09434C11.8881 9.09434 11.7071 9.11241 11.6296 9.13308C11.552 9.15374 11.4201 9.20283 11.3373 9.24156C11.2546 9.28029 11.1873 9.31903 11.1899 9.32938C11.1899 9.34229 11.1822 9.34745 11.1692 9.34489C11.1589 9.33969 11.0916 9.37847 11.0218 9.42495C10.9494 9.474 10.8485 9.55151 10.7942 9.60059C10.7141 9.6729 10.7063 9.68841 10.7425 9.70132C10.7684 9.70908 10.9184 9.76847 11.0735 9.83303C11.2287 9.89763 11.433 9.988 11.5261 10.0345C11.6192 10.0784 11.8158 10.1947 11.9657 10.2928C12.1157 10.391 12.289 10.4968 12.3537 10.5278C12.4183 10.5614 12.5269 10.6002 12.5993 10.6156C12.6691 10.6312 12.8502 10.6415 13.0002 10.6415C13.1501 10.6389 13.3363 10.626 13.4139 10.6131C13.4915 10.6002 13.6493 10.5718 13.7631 10.5485C13.8768 10.5253 13.9777 10.4917 13.988 10.4762C13.9984 10.4607 13.9932 10.4245 13.9777 10.3961C13.9622 10.3677 13.8768 10.2463 13.7889 10.1249C13.6984 10.0035 13.5225 9.80721 13.3958 9.68581C13.2717 9.56442 13.0933 9.4172 13.0002 9.36296C12.9097 9.30612 12.7752 9.23896 12.7027 9.21314C12.633 9.18732 12.5088 9.14859 12.4312 9.13048Z" fill="white"/>
<path d="M10.5408 9.31131C10.5382 9.30356 10.427 9.2984 10.2925 9.30096C10.1555 9.30356 10.0468 9.31131 10.0494 9.32163C10.0494 9.32938 10.0158 9.33714 9.97185 9.33969C9.92532 9.34229 9.83482 9.38102 9.75723 9.43527C9.6848 9.48435 9.59429 9.57217 9.55552 9.62641C9.5167 9.68066 9.45982 9.78654 9.43136 9.85885C9.40294 9.93376 9.37967 10.0138 9.37967 10.0345C9.37967 10.0655 9.42105 10.0733 9.60465 10.0733C9.8012 10.0707 9.85289 10.0604 9.98736 9.99835C10.0831 9.95187 10.1839 9.87696 10.2538 9.79945C10.3158 9.72974 10.4063 9.59539 10.4555 9.49726C10.5046 9.40169 10.5408 9.31903 10.5408 9.31131Z" fill="white"/>
<path d="M11.2804 10.1895C11.1951 10.1662 11.0089 10.143 10.8666 10.1378C10.7244 10.1327 10.5667 10.1378 10.5175 10.1507C10.4684 10.1636 10.3882 10.1765 10.3417 10.1817C10.2977 10.1869 10.2589 10.1921 10.2589 10.1947C10.2589 10.1998 10.29 10.2644 10.3261 10.3367C10.365 10.4116 10.4451 10.5511 10.5072 10.6467C10.5692 10.7448 10.7011 10.9024 10.802 11.0031C10.9029 11.1038 10.996 11.1839 11.0089 11.1839C11.0218 11.1839 11.0787 11.2123 11.1304 11.2484C11.1847 11.2846 11.3166 11.3492 11.4226 11.3879C11.5287 11.4293 11.733 11.4835 11.8752 11.5067C12.0459 11.5352 12.2373 11.5455 12.4338 11.5403L12.7338 11.5326C12.6898 11.4318 12.6252 11.3285 12.5631 11.2355C12.501 11.1426 12.4079 11.0186 12.3562 10.9566L12.3461 10.9449C12.2922 10.8829 12.1993 10.7762 12.1338 10.7035C12.0614 10.6234 11.9114 10.4994 11.8002 10.4245C11.6864 10.3522 11.5856 10.2954 11.5726 10.2979C11.5623 10.3031 11.552 10.2954 11.552 10.2799C11.552 10.2644 11.5313 10.2592 11.5054 10.2644C11.4821 10.2696 11.4563 10.2644 11.4485 10.2515C11.4408 10.2411 11.3658 10.2127 11.2804 10.1895Z" fill="white"/>
<path d="M2.16451 15.1796C2.24209 15.1744 2.1852 15.1719 2.0352 15.1719C1.88521 15.1719 1.82056 15.1744 1.89297 15.1796C1.96279 15.1848 2.08692 15.1848 2.16451 15.1796Z" fill="white"/>
<path d="M3.11101 15.4147C3.09549 15.4043 3.04118 15.394 2.98946 15.394C2.93257 15.394 2.86792 15.4172 2.82137 15.4508C2.77999 15.4818 2.67138 15.5361 2.57828 15.567C2.48518 15.6006 2.36622 15.66 2.31191 15.7039C2.23692 15.7633 2.21623 15.7995 2.21623 15.8641C2.21623 15.9183 2.23692 15.97 2.27312 16.0061C2.30674 16.0397 2.35329 16.0655 2.37657 16.0655C2.40243 16.0655 2.50845 16.0113 2.60931 15.9416C2.71275 15.8744 2.87051 15.7943 2.95843 15.7607C3.08515 15.7169 3.12911 15.6859 3.16014 15.6264C3.19118 15.5645 3.19376 15.5361 3.17049 15.4896C3.15239 15.4585 3.12653 15.425 3.11101 15.4147Z" fill="white"/>
<path d="M13.251 15.4741C13.1501 15.4276 13.0338 15.394 12.9743 15.394C12.9053 15.394 12.8536 15.4112 12.8192 15.4456C12.7907 15.4741 12.7674 15.5205 12.7674 15.549C12.7674 15.5774 12.7933 15.6264 12.8243 15.66C12.8579 15.6936 12.9484 15.7427 13.026 15.7685C13.1036 15.7943 13.2484 15.8718 13.3493 15.9416C13.4941 16.0449 13.5458 16.0655 13.6001 16.0552C13.6493 16.0449 13.6855 16.0113 13.7139 15.9545C13.7475 15.8847 13.7501 15.8615 13.7191 15.7969C13.701 15.7582 13.626 15.6859 13.5562 15.6393C13.4838 15.5929 13.3493 15.5179 13.251 15.4741Z" fill="white"/>
<path d="M8.73057 17.3105C8.68915 17.2666 8.64522 17.2278 8.63487 17.2278C8.62192 17.2278 8.60385 17.2356 8.5909 17.2459C8.57798 17.2537 8.57023 17.5042 8.57279 17.8012C8.57799 18.3204 8.58054 18.3411 8.63487 18.3979C8.67364 18.4366 8.75123 18.4676 8.86244 18.4909C8.95554 18.5063 9.06931 18.5322 9.11328 18.5477L9.19863 18.5709C9.19863 19.1521 9.21158 19.351 9.22965 19.4104C9.24776 19.4672 9.30984 19.5602 9.36672 19.617C9.4236 19.6738 9.54001 19.7539 9.62531 19.7952C9.71066 19.8365 9.8012 19.8934 9.82447 19.9244C9.86069 19.9657 9.871 20.0277 9.871 20.1723L9.87168 20.2002C9.87405 20.2974 9.87642 20.3946 9.87875 20.4229C9.88135 20.4564 9.89946 20.4823 9.91497 20.4823C9.93308 20.4823 9.95374 20.5004 9.96154 20.521C9.9693 20.5417 9.99516 20.5598 10.0184 20.5598C10.0572 20.5598 10.0598 20.5546 10.0262 20.5339C9.99516 20.5133 10.0003 20.5081 10.052 20.5081C10.0883 20.5081 10.1348 20.4952 10.1581 20.4771C10.1788 20.459 10.2175 20.4125 10.2408 20.3712C10.2719 20.3221 10.2822 20.2524 10.2796 20.1387L10.2744 19.9786C10.2408 20.3299 10.2408 20.3273 10.2408 20.069C10.2382 19.8727 10.2279 19.7694 10.1943 19.6945C10.171 19.6377 10.127 19.5705 10.096 19.5447C10.065 19.5188 9.95894 19.4672 9.86069 19.4285C9.76499 19.3897 9.66929 19.3406 9.65118 19.32C9.62531 19.2916 9.615 19.1599 9.60725 18.8499C9.59949 18.4599 9.5943 18.4134 9.54517 18.3462C9.51415 18.3075 9.46242 18.2532 9.4288 18.23C9.39518 18.2042 9.27882 18.1628 9.17276 18.1344C9.06675 18.1034 8.97365 18.075 8.9659 18.0647C8.95814 18.0569 8.95039 17.9459 8.94519 17.8193C8.94003 17.6204 8.92968 17.5765 8.8728 17.4913C8.83658 17.4397 8.77194 17.357 8.73057 17.3105Z" fill="white"/>
<path d="M2.4619 17.5636C2.45415 17.5352 2.42828 17.5145 2.40243 17.5145C2.37915 17.5171 2.31191 17.5326 2.25243 17.5481C2.19295 17.5636 2.12571 17.5946 2.10244 17.6153C2.07916 17.6359 2.05848 17.6721 2.05848 17.6928C2.05848 17.7134 2.08434 17.7573 2.11278 17.7883C2.14382 17.8245 2.19554 17.8477 2.24209 17.8477C2.28347 17.8477 2.34294 17.8348 2.37139 17.8219C2.39984 17.809 2.43346 17.7547 2.44898 17.7057C2.4619 17.6566 2.46966 17.592 2.4619 17.5636Z" fill="white"/>
<path d="M7.22029 18.3514C7.18408 18.3152 7.1401 18.2868 7.12199 18.2868C7.10393 18.2868 7.01858 18.3307 6.93324 18.385C6.85049 18.4418 6.75995 18.5089 6.73668 18.5348C6.71082 18.5606 6.65394 18.6717 6.60481 18.7776C6.55824 18.8834 6.50651 18.9945 6.491 19.0229C6.47809 19.0514 6.36688 19.1263 6.24791 19.1882C6.12895 19.2528 5.98157 19.351 5.91948 19.4078C5.84965 19.475 5.79536 19.555 5.7721 19.6299C5.75139 19.6945 5.73328 19.8908 5.72813 20.0742C5.72293 20.2524 5.72553 20.397 5.73328 20.3893C5.74104 20.3841 5.75655 20.397 5.7721 20.4203C5.78501 20.441 5.84709 20.4668 5.90397 20.4771C5.98412 20.49 6.0255 20.4848 6.05911 20.4564C6.10053 20.4229 6.10309 20.4229 6.08242 20.4564C6.06171 20.4874 6.06947 20.4874 6.1212 20.4539C6.17032 20.4203 6.18328 20.3945 6.17552 20.3376C6.17032 20.2963 6.15481 20.2343 6.1419 20.1982C6.12639 20.162 6.11604 20.0458 6.1186 19.9399C6.1212 19.7513 6.12379 19.7436 6.21945 19.6635C6.27118 19.617 6.33842 19.5731 6.36688 19.5679C6.39534 19.5602 6.47549 19.5214 6.54792 19.4827C6.61772 19.4439 6.71082 19.3742 6.75219 19.3329C6.79356 19.2916 6.86856 19.1702 6.91513 19.0668C6.96166 18.9661 7.00047 18.868 7.00047 18.8551C7.00047 18.8422 7.06251 18.7646 7.13495 18.6846C7.20994 18.6071 7.27458 18.5141 7.27718 18.478C7.28233 18.4392 7.25907 18.3901 7.22029 18.3514Z" fill="white"/>
<path d="M4.49971 18.9997C4.46609 18.9635 4.42472 18.9325 4.40665 18.9325C4.38854 18.9325 4.35493 18.948 4.33162 18.9635C4.30835 18.9816 4.23596 19.0849 4.17128 19.1908C4.0963 19.3148 4.06268 19.3949 4.0782 19.4104C4.09372 19.4259 4.09372 19.4465 4.0782 19.462C4.0601 19.4801 4.08855 19.5008 4.15837 19.5266C4.23596 19.555 4.27474 19.5576 4.30576 19.5369C4.32906 19.5214 4.3937 19.4465 4.44543 19.3691C4.49715 19.2916 4.54628 19.1934 4.55144 19.1469C4.55664 19.0875 4.54368 19.0462 4.49971 18.9997Z" fill="white"/>
<path d="M11.733 19.0927C11.6916 19.0333 11.6321 18.9765 11.6062 18.9635C11.5778 18.9532 11.5313 18.948 11.5028 18.9506C11.4718 18.9558 11.4485 18.9739 11.4459 18.9894C11.4459 19.0074 11.4434 19.0772 11.4408 19.1443C11.4382 19.2141 11.4408 19.2683 11.4485 19.2683C11.4563 19.2683 11.4847 19.3045 11.5131 19.351C11.539 19.3974 11.5856 19.462 11.6166 19.4956C11.6477 19.5292 11.6968 19.5524 11.7407 19.5524C11.7873 19.5524 11.8261 19.5292 11.8597 19.4801C11.8933 19.4336 11.9063 19.3897 11.8933 19.3458C11.8856 19.3096 11.8623 19.2631 11.8442 19.2425C11.8261 19.2218 11.7769 19.1547 11.733 19.0927Z" fill="white"/>
<path d="M7.08062 20.0096C7.0496 19.9708 7.00307 19.9399 6.96945 19.9399C6.93579 19.9399 6.88926 19.9579 6.866 19.976C6.84014 19.9967 6.81167 20.0509 6.80392 20.0974C6.79357 20.1465 6.79357 20.2627 6.80392 20.3583C6.81167 20.4616 6.82978 20.5288 6.84529 20.521C6.8608 20.5133 6.87116 20.521 6.87116 20.5339C6.87116 20.5468 6.90217 20.5598 6.94359 20.5598C6.98236 20.5598 7.03409 20.5468 7.05996 20.5288C7.09873 20.5029 7.11168 20.4513 7.12199 20.2885C7.13235 20.1077 7.12719 20.0742 7.08062 20.0096Z" fill="white"/>
</svg>
